<svg width="42" height="42" viewBox="0 0 42 42" fill="none" xmlns="http://www.w3.org/2000/svg">
<g id="Group 1339">
<g id="Group 1338">
<g id="Group 1332">
<circle id="Ellipse 22" cx="21" cy="21" r="19.5" fill="#02284A" stroke="url(#paint0_linear_3286_662)" stroke-width="3"/>
</g>
<path id="Union" fill-rule="evenodd" clip-rule="evenodd" d="M15.288 31.3036C14.6176 30.8993 14.388 30.0039 14.775 29.3037L18.4158 22.7165H11.4015C10.6275 22.7165 10 22.061 10 21.2524C10 20.4438 10.6275 19.7884 11.4015 19.7884H18.5275L14.7872 13.2159C14.3916 12.5209 14.6104 11.6225 15.2757 11.2093C15.9411 10.7962 16.8011 11.0247 17.1967 11.7197L20.8985 18.2245L24.4868 11.7323C24.8738 11.032 25.731 10.7921 26.4013 11.1964C27.0717 11.6007 27.3013 12.4961 26.9143 13.1963L23.2709 19.7884H31.0231C31.7972 19.7884 32.4247 20.4438 32.4247 21.2524C32.4247 22.061 31.7972 22.7165 31.0231 22.7165H23.4548L27.122 29.1604C27.5175 29.8554 27.2988 30.7538 26.6335 31.167C25.9681 31.5801 25.1081 31.3517 24.7125 30.6566L20.9338 24.0167L17.2025 30.7677C16.8155 31.468 15.9583 31.7079 15.288 31.3036Z" fill="white"/>
</g>
</g>
<defs>
<linearGradient id="paint0_linear_3286_662" x1="13.4066" y1="4.76865" x2="42.4139" y2="22.1484" gradientUnits="userSpaceOnUse">
<stop stop-color="#13E6C0"/>
<stop offset="0.509176" stop-color="#5D98F0"/>
<stop offset="1" stop-color="#E020F1"/>
</linearGradient>
</defs>
</svg>
