<svg width="42" height="42" viewBox="0 0 42 42" fill="none" xmlns="http://www.w3.org/2000/svg">
<g id="Group 1340">
<g id="Group 1338">
<g id="Group 1332">
<circle id="Ellipse 22" cx="21" cy="21" r="19.5" fill="#2D2D2D" stroke="url(#paint0_linear_4745_870)" stroke-width="3"/>
</g>
</g>
<g id="currency_exchange">
<mask id="mask0_4745_870" style="mask-type:alpha" maskUnits="userSpaceOnUse" x="9" y="9" width="24" height="24">
<rect id="Bounding box" x="9" y="9" width="24" height="24" fill="#D9D9D9"/>
</mask>
<g mask="url(#mask0_4745_870)">
<path id="currency_exchange_2" d="M21 32C19.1333 32 17.4167 31.575 15.85 30.725C14.2833 29.875 13 28.7417 12 27.325V30H10V24H16V26H13.525C14.325 27.2 15.3792 28.1667 16.6875 28.9C17.9958 29.6333 19.4333 30 21 30C22.25 30 23.4208 29.7625 24.5125 29.2875C25.6042 28.8125 26.5542 28.1708 27.3625 27.3625C28.1708 26.5542 28.8125 25.6042 29.2875 24.5125C29.7625 23.4208 30 22.25 30 21H32C32 22.5167 31.7125 23.9417 31.1375 25.275C30.5625 26.6083 29.775 27.775 28.775 28.775C27.775 29.775 26.6083 30.5625 25.275 31.1375C23.9417 31.7125 22.5167 32 21 32ZM20.1 28V26.7C19.3167 26.5167 18.6792 26.1792 18.1875 25.6875C17.6958 25.1958 17.3333 24.55 17.1 23.75L18.75 23.1C18.95 23.7833 19.2625 24.2958 19.6875 24.6375C20.1125 24.9792 20.6 25.15 21.15 25.15C21.7 25.15 22.1708 25.0208 22.5625 24.7625C22.9542 24.5042 23.15 24.1 23.15 23.55C23.15 23.0667 22.9458 22.675 22.5375 22.375C22.1292 22.075 21.4 21.7333 20.35 21.35C19.3667 21 18.6458 20.5833 18.1875 20.1C17.7292 19.6167 17.5 18.9833 17.5 18.2C17.5 17.5167 17.7375 16.8958 18.2125 16.3375C18.6875 15.7792 19.3333 15.4167 20.15 15.25V14H21.9V15.25C22.5 15.3 23.0458 15.5417 23.5375 15.975C24.0292 16.4083 24.3667 16.9167 24.55 17.5L22.95 18.15C22.8167 17.7667 22.6 17.4458 22.3 17.1875C22 16.9292 21.5833 16.8 21.05 16.8C20.4667 16.8 20.0208 16.925 19.7125 17.175C19.4042 17.425 19.25 17.7667 19.25 18.2C19.25 18.6333 19.4417 18.975 19.825 19.225C20.2083 19.475 20.9 19.7667 21.9 20.1C23.1 20.5333 23.9 21.0417 24.3 21.625C24.7 22.2083 24.9 22.85 24.9 23.55C24.9 24.0333 24.8167 24.4583 24.65 24.825C24.4833 25.1917 24.2625 25.5042 23.9875 25.7625C23.7125 26.0208 23.3917 26.2292 23.025 26.3875C22.6583 26.5458 22.2667 26.6667 21.85 26.75V28H20.1ZM10 21C10 19.4833 10.2875 18.0583 10.8625 16.725C11.4375 15.3917 12.225 14.225 13.225 13.225C14.225 12.225 15.3917 11.4375 16.725 10.8625C18.0583 10.2875 19.4833 10 21 10C22.8667 10 24.5833 10.425 26.15 11.275C27.7167 12.125 29 13.2583 30 14.675V12H32V18H26V16H28.475C27.675 14.8 26.6208 13.8333 25.3125 13.1C24.0042 12.3667 22.5667 12 21 12C19.75 12 18.5792 12.2375 17.4875 12.7125C16.3958 13.1875 15.4458 13.8292 14.6375 14.6375C13.8292 15.4458 13.1875 16.3958 12.7125 17.4875C12.2375 18.5792 12 19.75 12 21H10Z" fill="#EAE9E9"/>
</g>
</g>
</g>
<defs>
<linearGradient id="paint0_linear_4745_870" x1="13.4066" y1="4.76865" x2="42.4139" y2="22.1484" gradientUnits="userSpaceOnUse">
<stop stop-color="#13E6C0"/>
<stop offset="0.509176" stop-color="#5D98F0"/>
<stop offset="1" stop-color="#E020F1"/>
</linearGradient>
</defs>
</svg>
