<svg width="42" height="42" viewBox="0 0 42 42" fill="none" xmlns="http://www.w3.org/2000/svg">
<g id="Group 1337">
<g id="Group 1332">
<circle id="Ellipse 22" cx="21" cy="21" r="19.5" fill="#02284A" stroke="url(#paint0_linear_3286_624)" stroke-width="3"/>
</g>
<g id="lock_open_right" filter="url(#filter0_d_3286_624)">
<path id="forward_to_inbox" d="M21 22L13 17V27H22V29H13C12.45 29 11.9792 28.8042 11.5875 28.4125C11.1958 28.0208 11 27.55 11 27V15C11 14.45 11.1958 13.9792 11.5875 13.5875C11.9792 13.1958 12.45 13 13 13H29C29.55 13 30.0208 13.1958 30.4125 13.5875C30.8042 13.9792 31 14.45 31 15V22H29V17L21 22ZM21 20L29 15H13L21 20ZM28 32L26.6 30.6L28.175 29H24V27H28.175L26.575 25.4L28 24L32 28L28 32ZM13 17V28V22V22.075V15V17Z" fill="white"/>
</g>
</g>
<defs>
<filter id="filter0_d_3286_624" x="9" y="13" width="25" height="23" filterUnits="userSpaceOnUse" color-interpolation-filters="sRGB">
<feFlood flood-opacity="0" result="BackgroundImageFix"/>
<feColorMatrix in="SourceAlpha" type="matrix" values="0 0 0 0 0 0 0 0 0 0 0 0 0 0 0 0 0 0 127 0" result="hardAlpha"/>
<feOffset dy="2"/>
<feGaussianBlur stdDeviation="1"/>
<feComposite in2="hardAlpha" operator="out"/>
<feColorMatrix type="matrix" values="0 0 0 0 0 0 0 0 0 0 0 0 0 0 0 0 0 0 0.2 0"/>
<feBlend mode="normal" in2="BackgroundImageFix" result="effect1_dropShadow_3286_624"/>
<feBlend mode="normal" in="SourceGraphic" in2="effect1_dropShadow_3286_624" result="shape"/>
</filter>
<linearGradient id="paint0_linear_3286_624" x1="13.4066" y1="4.76865" x2="42.4139" y2="22.1484" gradientUnits="userSpaceOnUse">
<stop stop-color="#13E6C0"/>
<stop offset="0.509176" stop-color="#5D98F0"/>
<stop offset="1" stop-color="#E020F1"/>
</linearGradient>
</defs>
</svg>
