<svg width="42" height="42" viewBox="0 0 42 42" fill="none" xmlns="http://www.w3.org/2000/svg">
<g id="Group 1335">
<g id="Group 1332">
<circle id="Ellipse 22" cx="21" cy="21" r="19.5" fill="#2D2D2D" stroke="url(#paint0_linear_4745_829)" stroke-width="3"/>
</g>
<g id="lock_open_right" filter="url(#filter0_d_4745_829)">
<g id="lock_reset" filter="url(#filter1_d_4745_829)">
<mask id="mask0_4745_829" style="mask-type:alpha" maskUnits="userSpaceOnUse" x="8" y="9" width="24" height="24">
<rect id="Bounding box" x="8" y="9" width="24" height="24" fill="#D9D9D9"/>
</mask>
<g mask="url(#mask0_4745_829)">
<path id="lock_reset_2" d="M21 30C19.7667 30 18.6125 29.7708 17.5375 29.3125C16.4625 28.8542 15.5167 28.225 14.7 27.425L16.125 26C16.7583 26.6167 17.4917 27.1042 18.325 27.4625C19.1583 27.8208 20.05 28 21 28C22.9333 28 24.5833 27.3167 25.95 25.95C27.3167 24.5833 28 22.9333 28 21C28 19.0667 27.3167 17.4167 25.95 16.05C24.5833 14.6833 22.9333 14 21 14C19.0667 14 17.4167 14.6833 16.05 16.05C14.6833 17.4167 14 19.0667 14 21V21.175L15.825 19.35L17.25 20.75L13 25L8.75 20.75L10.175 19.35L12 21.2V21C12 19.75 12.2375 18.5792 12.7125 17.4875C13.1875 16.3958 13.8292 15.4458 14.6375 14.6375C15.4458 13.8292 16.3958 13.1875 17.4875 12.7125C18.5792 12.2375 19.75 12 21 12C22.25 12 23.4208 12.2375 24.5125 12.7125C25.6042 13.1875 26.5542 13.8292 27.3625 14.6375C28.1708 15.4458 28.8125 16.3958 29.2875 17.4875C29.7625 18.5792 30 19.75 30 21C30 23.5 29.125 25.625 27.375 27.375C25.625 29.125 23.5 30 21 30ZM19 25C18.7167 25 18.4792 24.9042 18.2875 24.7125C18.0958 24.5208 18 24.2833 18 24V21C18 20.7167 18.0958 20.4792 18.2875 20.2875C18.4792 20.0958 18.7167 20 19 20V19C19 18.45 19.1958 17.9792 19.5875 17.5875C19.9792 17.1958 20.45 17 21 17C21.55 17 22.0208 17.1958 22.4125 17.5875C22.8042 17.9792 23 18.45 23 19V20C23.2833 20 23.5208 20.0958 23.7125 20.2875C23.9042 20.4792 24 20.7167 24 21V24C24 24.2833 23.9042 24.5208 23.7125 24.7125C23.5208 24.9042 23.2833 25 23 25H19ZM20 20H22V19C22 18.7167 21.9042 18.4792 21.7125 18.2875C21.5208 18.0958 21.2833 18 21 18C20.7167 18 20.4792 18.0958 20.2875 18.2875C20.0958 18.4792 20 18.7167 20 19V20Z" fill="#EAE9E9"/>
</g>
</g>
</g>
</g>
<defs>
<filter id="filter0_d_4745_829" x="6.75" y="12" width="25.25" height="22" filterUnits="userSpaceOnUse" color-interpolation-filters="sRGB">
<feFlood flood-opacity="0" result="BackgroundImageFix"/>
<feColorMatrix in="SourceAlpha" type="matrix" values="0 0 0 0 0 0 0 0 0 0 0 0 0 0 0 0 0 0 127 0" result="hardAlpha"/>
<feOffset dy="2"/>
<feGaussianBlur stdDeviation="1"/>
<feComposite in2="hardAlpha" operator="out"/>
<feColorMatrix type="matrix" values="0 0 0 0 0 0 0 0 0 0 0 0 0 0 0 0 0 0 0.2 0"/>
<feBlend mode="normal" in2="BackgroundImageFix" result="effect1_dropShadow_4745_829"/>
<feBlend mode="normal" in="SourceGraphic" in2="effect1_dropShadow_4745_829" result="shape"/>
</filter>
<filter id="filter1_d_4745_829" x="6.75" y="12" width="25.25" height="22" filterUnits="userSpaceOnUse" color-interpolation-filters="sRGB">
<feFlood flood-opacity="0" result="BackgroundImageFix"/>
<feColorMatrix in="SourceAlpha" type="matrix" values="0 0 0 0 0 0 0 0 0 0 0 0 0 0 0 0 0 0 127 0" result="hardAlpha"/>
<feOffset dy="2"/>
<feGaussianBlur stdDeviation="1"/>
<feComposite in2="hardAlpha" operator="out"/>
<feColorMatrix type="matrix" values="0 0 0 0 0 0 0 0 0 0 0 0 0 0 0 0 0 0 0.2 0"/>
<feBlend mode="normal" in2="BackgroundImageFix" result="effect1_dropShadow_4745_829"/>
<feBlend mode="normal" in="SourceGraphic" in2="effect1_dropShadow_4745_829" result="shape"/>
</filter>
<linearGradient id="paint0_linear_4745_829" x1="13.4066" y1="4.76865" x2="42.4139" y2="22.1484" gradientUnits="userSpaceOnUse">
<stop stop-color="#13E6C0"/>
<stop offset="0.509176" stop-color="#5D98F0"/>
<stop offset="1" stop-color="#E020F1"/>
</linearGradient>
</defs>
</svg>
