<svg width="44" height="44" viewBox="0 0 44 44" fill="none" xmlns="http://www.w3.org/2000/svg">
<g id="Group 122">
<g id="Rectangle 162" filter="url(#filter0_d_104_20)">
<rect x="2" y="-0.000244141" width="40" height="40" rx="10" fill="white"/>
</g>
<g id="Group 115">
<path id="Vector" d="M15.8138 22.3177L15.0403 25.2054L12.213 25.2652C11.3681 23.6981 10.8889 21.9051 10.8889 19.9997C10.8889 18.1572 11.3369 16.4197 12.1312 14.8898H12.1318L14.6488 15.3512L15.7515 17.8531C15.5207 18.5259 15.3949 19.2482 15.3949 19.9997C15.395 20.8153 15.5427 21.5968 15.8138 22.3177Z" fill="#FBBB00"/>
<path id="Vector_2" d="M32.9173 17.9242C33.0449 18.5963 33.1115 19.2905 33.1115 19.9999C33.1115 20.7954 33.0278 21.5713 32.8685 22.3198C32.3276 24.8668 30.9143 27.0909 28.9564 28.6648L28.9558 28.6642L25.7855 28.5024L25.3368 25.7014C26.6359 24.9395 27.6512 23.7472 28.186 22.3198H22.2446V17.9242H28.2727H32.9173Z" fill="#518EF8"/>
<path id="Vector_3" d="M28.9555 28.6639L28.9561 28.6645C27.052 30.195 24.6331 31.1108 22.0001 31.1108C17.7687 31.1108 14.0898 28.7457 12.2131 25.2652L15.8139 22.3177C16.7522 24.822 19.1679 26.6047 22.0001 26.6047C23.2174 26.6047 24.3578 26.2756 25.3364 25.7011L28.9555 28.6639Z" fill="#28B446"/>
<path id="Vector_4" d="M29.0918 11.4467L25.4923 14.3935C24.4794 13.7605 23.2822 13.3948 21.9996 13.3948C19.1033 13.3948 16.6424 15.2592 15.7511 17.8533L12.1314 14.8899H12.1308C13.98 11.3246 17.7053 8.88867 21.9996 8.88867C24.6956 8.88867 27.1675 9.849 29.0918 11.4467Z" fill="#F14336"/>
</g>
</g>
<defs>
<filter id="filter0_d_104_20" x="0" y="-0.000244141" width="44" height="44" filterUnits="userSpaceOnUse" color-interpolation-filters="sRGB">
<feFlood flood-opacity="0" result="BackgroundImageFix"/>
<feColorMatrix in="SourceAlpha" type="matrix" values="0 0 0 0 0 0 0 0 0 0 0 0 0 0 0 0 0 0 127 0" result="hardAlpha"/>
<feOffset dy="2"/>
<feGaussianBlur stdDeviation="1"/>
<feComposite in2="hardAlpha" operator="out"/>
<feColorMatrix type="matrix" values="0 0 0 0 0 0 0 0 0 0 0 0 0 0 0 0 0 0 0.2 0"/>
<feBlend mode="normal" in2="BackgroundImageFix" result="effect1_dropShadow_104_20"/>
<feBlend mode="normal" in="SourceGraphic" in2="effect1_dropShadow_104_20" result="shape"/>
</filter>
</defs>
</svg>
