<svg width="16" height="20" viewBox="0 0 16 20" fill="none" xmlns="http://www.w3.org/2000/svg">
<path id="Vector" d="M13.3331 6.66666H12.381V4.76173C12.381 2.13325 10.2475 -0.000244141 7.61901 -0.000244141C4.99054 -0.000244141 2.85704 2.13325 2.85704 4.76173V6.66666H1.90493C0.857112 6.66666 0 7.52377 0 8.57159V18.0948C0 19.1426 0.857112 19.9998 1.90493 19.9998H13.3331C14.3809 19.9998 15.238 19.1426 15.238 18.0948V8.57159C15.238 7.52377 14.3809 6.66666 13.3331 6.66666ZM4.76197 4.76173C4.76197 3.18107 6.03836 1.90469 7.61901 1.90469C9.19967 1.90469 10.4761 3.18107 10.4761 4.76173V6.66666H4.76197V4.76173ZM13.3331 18.0948H1.90493V8.57159H13.3331V18.0948ZM7.61901 15.2378C8.66683 15.2378 9.52394 14.3807 9.52394 13.3329C9.52394 12.285 8.66683 11.4279 7.61901 11.4279C6.57119 11.4279 5.71408 12.285 5.71408 13.3329C5.71408 14.3807 6.57119 15.2378 7.61901 15.2378Z" fill="#EAE9E9"/>
</svg>
