<svg width="20" height="15" viewBox="0 0 20 15" fill="none" xmlns="http://www.w3.org/2000/svg">
<path id="icon" fill-rule="evenodd" clip-rule="evenodd" d="M10 -0.000244141C12.4381 -0.000244141 14.7695 1.27858 16.9422 3.3797C17.6835 4.09651 18.354 4.86177 18.9444 5.62736C19.3006 6.08934 19.5535 6.45276 19.692 6.66926L20 7.15089L19.692 7.63252C19.5535 7.84903 19.3006 8.21244 18.9444 8.67442C18.354 9.44001 17.6835 10.2053 16.9422 10.9221C14.7695 13.0232 12.4381 14.302 10 14.302C7.56187 14.302 5.23048 13.0232 3.05778 10.9221C2.31654 10.2053 1.64596 9.44001 1.05564 8.67442C0.699418 8.21244 0.446507 7.84903 0.308035 7.63252L0 7.15089L0.308035 6.66926C0.446507 6.45276 0.699418 6.08934 1.05564 5.62736C1.64596 4.86177 2.31654 4.09651 3.05778 3.3797C5.23048 1.27858 7.56187 -0.000244141 10 -0.000244141ZM17.5286 6.71903C16.9881 6.01808 16.3736 5.31681 15.6994 4.66484C13.8281 2.85518 11.8817 1.78754 10 1.78754C8.11829 1.78754 6.1719 2.85518 4.30058 4.66484C3.6264 5.31681 3.0119 6.01808 2.47141 6.71903C2.35468 6.87042 2.24682 7.01486 2.1482 7.15089C2.24682 7.28692 2.35468 7.43136 2.47141 7.58275C3.0119 8.2837 3.6264 8.98498 4.30058 9.63694C6.1719 11.4466 8.11829 12.5142 10 12.5142C11.8817 12.5142 13.8281 11.4466 15.6994 9.63694C16.3736 8.98498 16.9881 8.2837 17.5286 7.58275C17.6453 7.43136 17.7532 7.28692 17.8518 7.15089C17.7532 7.01486 17.6453 6.87042 17.5286 6.71903ZM6.42441 7.15089C6.42441 9.12562 8.02525 10.7265 9.99998 10.7265C11.9747 10.7265 13.5755 9.12562 13.5755 7.15089C13.5755 5.17616 11.9747 3.57532 9.99998 3.57532C8.02525 3.57532 6.42441 5.17616 6.42441 7.15089ZM11.7878 7.15089C11.7878 8.13826 10.9873 8.93867 9.99998 8.93867C9.01261 8.93867 8.2122 8.13826 8.2122 7.15089C8.2122 6.16353 9.01261 5.36311 9.99998 5.36311C10.9873 5.36311 11.7878 6.16353 11.7878 7.15089Z" fill="#707070"/>
</svg>
