<svg width="17" height="18" viewBox="0 0 17 18" fill="none" xmlns="http://www.w3.org/2000/svg">
<g id="Group 726">
<path id="Vector" d="M4.99863 4.2V2.6C4.99863 2.17565 5.1672 1.76869 5.46726 1.46863C5.76732 1.16857 6.17429 1 6.59863 1H9.79863C10.223 1 10.6299 1.16857 10.93 1.46863C11.2301 1.76869 11.3986 2.17565 11.3986 2.6V4.2M13.7986 4.2V15.4C13.7986 15.8243 13.6301 16.2313 13.33 16.5314C13.0299 16.8314 12.623 17 12.1986 17H4.19863C3.77429 17 3.36732 16.8314 3.06726 16.5314C2.7672 16.2313 2.59863 15.8243 2.59863 15.4V4.2H13.7986Z" stroke="white" stroke-width="1.5" stroke-linecap="round" stroke-linejoin="round"/>
<path id="Vector_2" d="M9.7998 8.19995V13" stroke="white" stroke-width="1.5" stroke-linecap="round" stroke-linejoin="round"/>
<path id="Vector_3" d="M6.59961 8.19995V13" stroke="white" stroke-width="1.5" stroke-linecap="round" stroke-linejoin="round"/>
<path id="Vector_4" d="M1 4.19995H2.6H15.4" stroke="white" stroke-width="1.5" stroke-linecap="round" stroke-linejoin="round"/>
</g>
</svg>
