<svg xmlns="http://www.w3.org/2000/svg" width="50" height="50" viewBox="0 0 20 24" fill="none">
<path d="M16.8413 13.449V9.62358C16.8395 7.91915 16.2347 6.27033 15.1338 4.9691C14.033 3.66788 12.5071 2.79823 10.8265 2.51416V1.20295C10.8265 0.883906 10.6998 0.577931 10.4742 0.352335C10.2486 0.126739 9.94262 0 9.62358 0C9.30454 0 8.99856 0.126739 8.77297 0.352335C8.54737 0.577931 8.42063 0.883906 8.42063 1.20295V2.51416C6.74004 2.79823 5.2142 3.66788 4.11334 4.9691C3.01248 6.27033 2.40762 7.91915 2.40589 9.62358V13.449C1.70392 13.6971 1.09588 14.1564 0.665156 14.7637C0.234429 15.371 0.00209254 16.0967 0 16.8413V19.2472C0 19.5662 0.126739 19.8722 0.352335 20.0978C0.577932 20.3234 0.883906 20.4501 1.20295 20.4501H4.9802C5.25722 21.4694 5.86196 22.3693 6.70113 23.0109C7.5403 23.6524 8.56727 24 9.62358 24C10.6799 24 11.7069 23.6524 12.546 23.0109C13.3852 22.3693 13.9899 21.4694 14.267 20.4501H18.0442C18.3633 20.4501 18.6692 20.3234 18.8948 20.0978C19.1204 19.8722 19.2472 19.5662 19.2472 19.2472V16.8413C19.2451 16.0967 19.0127 15.371 18.582 14.7637C18.1513 14.1564 17.5432 13.6971 16.8413 13.449ZM4.81179 9.62358C4.81179 8.34741 5.31874 7.12351 6.22113 6.22113C7.12351 5.31874 8.34741 4.81179 9.62358 4.81179C10.8997 4.81179 12.1236 5.31874 13.026 6.22113C13.9284 7.12351 14.4354 8.34741 14.4354 9.62358V13.2324H4.81179V9.62358ZM9.62358 21.6531C9.20372 21.6505 8.79183 21.5381 8.42885 21.3271C8.06587 21.1161 7.76444 20.8137 7.55451 20.4501H11.6926C11.4827 20.8137 11.1813 21.1161 10.8183 21.3271C10.4553 21.5381 10.0434 21.6505 9.62358 21.6531ZM16.8413 18.0442H2.40589V16.8413C2.40589 16.5222 2.53263 16.2162 2.75823 15.9906C2.98383 15.7651 3.2898 15.6383 3.60884 15.6383H15.6383C15.9574 15.6383 16.2633 15.7651 16.4889 15.9906C16.7145 16.2162 16.8413 16.5222 16.8413 16.8413V18.0442Z" fill="white"/>
</svg>