<svg xmlns="http://www.w3.org/2000/svg" width="109" height="116" viewBox="0 0 109 116" fill="none">
  <g clip-path="url(#clip0_336_95)" filter="url(#filter0_d_336_95)">
    <path opacity="0.73" d="M47.6664 87.4675C71.7827 87.4675 91.3328 67.8873 91.3328 43.7338C91.3328 19.5803 71.7827 0 47.6664 0C23.5501 0 4 19.5803 4 43.7338C4 67.8873 23.5501 87.4675 47.6664 87.4675Z" fill="#37D2F4"/>
    <path d="M47.6664 77.1798C66.1097 77.1798 81.0609 62.2056 81.0609 43.7338C81.0609 25.2621 66.1097 10.2878 47.6664 10.2878C29.2232 10.2878 14.272 25.2621 14.272 43.7338C14.272 62.2056 29.2232 77.1798 47.6664 77.1798Z" fill="url(#paint0_linear_336_95)"/>
    <path d="M51.0619 41.151H44.2283C41.8644 41.151 39.9304 39.214 39.9304 36.8465C39.9304 34.4791 41.8644 32.542 44.2283 32.542H52.781C54.1993 32.542 55.3598 33.7043 55.3598 35.1247C55.3598 36.5452 56.5202 37.7074 57.9385 37.7074C59.3568 37.7074 60.5172 36.5452 60.5172 35.1247C60.5172 30.8633 57.0789 27.4197 52.824 27.4197H50.2453V23.1152C50.2453 21.6947 49.0849 20.5325 47.6666 20.5325C46.2483 20.5325 45.0878 21.6947 45.0878 23.1152V27.4197H44.2283C39.0278 27.4197 34.8159 31.6381 34.8159 36.8465C34.8159 42.055 39.0278 46.2734 44.2283 46.2734H51.0619C53.4257 46.2734 55.3598 48.2104 55.3598 50.5779C55.3598 52.9454 53.4257 54.8824 51.0619 54.8824H42.5091C41.0908 54.8824 39.9304 53.7202 39.9304 52.2997C39.9304 50.8792 38.77 49.717 37.3517 49.717C35.9334 49.717 34.7729 50.8792 34.7729 52.2997C34.7729 56.5612 38.2112 60.0048 42.4661 60.0048H45.0449V64.3093C45.0449 65.7298 46.2053 66.892 47.6236 66.892C49.0419 66.892 50.2023 65.7298 50.2023 64.3093V60.0048H51.0619C56.2623 60.0048 60.4742 55.7864 60.4742 50.5779C60.4742 45.3695 56.2623 41.151 51.0619 41.151Z" fill="url(#paint1_linear_336_95)"/>
    <path fill-rule="evenodd" clip-rule="evenodd" d="M98.1665 68.618C102.015 69.0451 105 72.3083 105 76.3187V105.46C105 106.881 103.84 108.043 102.421 108.043H61.3766C59.9583 108.043 58.7979 106.881 58.7979 105.46V76.2757C58.7979 72.3053 61.7826 69.0448 65.6315 68.618V57.422C65.6315 50.3195 71.3907 44.5515 78.4822 44.5515H85.3158C92.4073 44.5515 98.1665 50.3195 98.1665 57.422V68.618ZM93.009 68.5706V57.422C93.009 53.1605 89.5707 49.7169 85.3158 49.7169H78.4822C74.2273 49.7169 70.789 53.1605 70.789 57.422V68.5706H93.009Z" fill="#EAE9E9"/>
    <path d="M82.5224 99.0037H81.276C79.9007 99.0037 78.7832 97.8845 78.7832 96.5071V83.981C78.7832 82.6035 79.9007 81.4844 81.276 81.4844H82.5224C83.8977 81.4844 85.0151 82.6035 85.0151 83.981V96.5071C84.9722 97.8845 83.8547 99.0037 82.5224 99.0037Z" fill="url(#paint2_linear_336_95)"/>
  </g>
  <defs>
    <filter id="filter0_d_336_95" x="0" y="0" width="109" height="116" filterUnits="userSpaceOnUse" color-interpolation-filters="sRGB">
      <feFlood flood-opacity="0" result="BackgroundImageFix"/>
      <feColorMatrix in="SourceAlpha" type="matrix" values="0 0 0 0 0 0 0 0 0 0 0 0 0 0 0 0 0 0 127 0" result="hardAlpha"/>
      <feOffset dy="4"/>
      <feGaussianBlur stdDeviation="2"/>
      <feComposite in2="hardAlpha" operator="out"/>
      <feColorMatrix type="matrix" values="0 0 0 0 0 0 0 0 0 0 0 0 0 0 0 0 0 0 0.25 0"/>
      <feBlend mode="normal" in2="BackgroundImageFix" result="effect1_dropShadow_336_95"/>
      <feBlend mode="normal" in="SourceGraphic" in2="effect1_dropShadow_336_95" result="shape"/>
    </filter>
    <linearGradient id="paint0_linear_336_95" x1="47.6664" y1="10.2878" x2="47.6664" y2="77.1798" gradientUnits="userSpaceOnUse">
      <stop stop-color="#30C2E2"/>
      <stop offset="0.519512" stop-color="#39D6C5"/>
      <stop offset="1" stop-color="#7FECAA"/>
    </linearGradient>
    <linearGradient id="paint1_linear_336_95" x1="34.8133" y1="43.7193" x2="60.4909" y2="43.7193" gradientUnits="userSpaceOnUse">
      <stop offset="0.2164" stop-color="#063E67"/>
      <stop offset="0.3499" stop-color="#053A61"/>
      <stop offset="0.988" stop-color="#02284A"/>
    </linearGradient>
    <linearGradient id="paint2_linear_336_95" x1="78.7988" y1="90.2624" x2="84.9793" y2="90.2624" gradientUnits="userSpaceOnUse">
      <stop offset="0.2164" stop-color="#063E67"/>
      <stop offset="0.3499" stop-color="#053A61"/>
      <stop offset="0.988" stop-color="#02284A"/>
    </linearGradient>
    <clipPath id="clip0_336_95">
      <rect width="101" height="108" fill="white" transform="translate(4)"/>
    </clipPath>
  </defs>
</svg>