<svg width="33" height="34" viewBox="0 0 33 34" fill="none" xmlns="http://www.w3.org/2000/svg">
<g filter="url(#filter0_d_3287_803)">
<mask id="mask0_3287_803" style="mask-type:alpha" maskUnits="userSpaceOnUse" x="1" y="0" width="32" height="32">
<rect x="1" width="32" height="32" fill="white"/>
</mask>
<g mask="url(#mask0_3287_803)">
<mask id="mask1_3287_803" style="mask-type:alpha" maskUnits="userSpaceOnUse" x="1" y="1" width="31" height="30">
<rect x="1.98047" y="1.69336" width="29.1367" height="29.1367" fill="#D9D9D9"/>
</mask>
<g mask="url(#mask1_3287_803)">
<path d="M16.5497 25.9746C17.5816 25.9746 18.5731 25.8178 19.524 25.5042C20.475 25.1905 21.3653 24.7403 22.1949 24.1536C21.3653 23.5668 20.475 23.1166 19.524 22.803C18.5731 22.4893 17.5816 22.3325 16.5497 22.3325C15.5177 22.3325 14.5263 22.4893 13.5753 22.803C12.6243 23.1166 11.734 23.5668 10.9044 24.1536C11.734 24.7403 12.6243 25.1905 13.5753 25.5042C14.5263 25.8178 15.5177 25.9746 16.5497 25.9746ZM19.7668 16.0196L18.0369 14.2896C18.138 14.1277 18.219 13.9557 18.2797 13.7736C18.3404 13.5915 18.3707 13.4094 18.3707 13.2273C18.3707 12.7214 18.1937 12.2915 17.8396 11.9374C17.4855 11.5833 17.0555 11.4063 16.5497 11.4063C16.3676 11.4063 16.1855 11.4366 16.0034 11.4973C15.8213 11.558 15.6493 11.6389 15.4874 11.7401L13.7574 10.0101C14.1418 9.66614 14.5718 9.40816 15.0473 9.23617C15.5228 9.06418 16.0236 8.97819 16.5497 8.97819C17.7232 8.97819 18.7248 9.39298 19.5544 10.2226C20.384 11.0522 20.7988 12.0537 20.7988 13.2273C20.7988 13.7534 20.7128 14.2542 20.5408 14.7297C20.3688 15.2052 20.1108 15.6351 19.7668 16.0196ZM26.6868 22.9395L24.9265 21.1792C25.3716 20.4305 25.7055 19.6414 25.9281 18.8118C26.1506 17.9822 26.2619 17.1324 26.2619 16.2624C26.2619 13.551 25.321 11.2545 23.4393 9.37275C21.5575 7.491 19.261 6.55013 16.5497 6.55013C15.6796 6.55013 14.8298 6.66142 14.0002 6.88399C13.1706 7.10656 12.3815 7.44042 11.6328 7.88556L9.87251 6.12522C10.864 5.47774 11.9262 4.98201 13.0593 4.63803C14.1924 4.29406 15.3559 4.12207 16.5497 4.12207C18.2291 4.12207 19.8073 4.44075 21.2844 5.07812C22.7615 5.71548 24.0463 6.58048 25.1389 7.67311C26.2316 8.76574 27.0966 10.0506 27.7339 11.5277C28.3713 13.0047 28.69 14.583 28.69 16.2624C28.69 17.4562 28.518 18.6196 28.174 19.7527C27.83 20.8858 27.3343 21.9481 26.6868 22.9395ZM16.5497 28.4027C14.8703 28.4027 13.292 28.084 11.815 27.4466C10.3379 26.8093 9.05304 25.9443 7.96041 24.8516C6.86778 23.759 6.00279 22.4742 5.36542 20.9971C4.72805 19.52 4.40937 17.9418 4.40937 16.2624C4.40937 15.0686 4.5763 13.9051 4.91016 12.772C5.24402 11.6389 5.73469 10.5665 6.38217 9.55485L2.80078 5.94312L4.53077 4.21312L28.5686 28.2509L26.8386 29.9809L8.17286 11.3455C7.72772 12.0942 7.39386 12.8833 7.17129 13.7129C6.94872 14.5425 6.83743 15.3923 6.83743 16.2624C6.83743 17.4157 7.02965 18.5184 7.41409 19.5706C7.79854 20.6228 8.35497 21.5839 9.08339 22.4539C10.176 21.6243 11.3546 20.992 12.6192 20.557C13.8839 20.122 15.194 19.9045 16.5497 19.9045C17.3186 19.9045 18.0874 19.9854 18.8563 20.1473C19.6252 20.3091 20.3739 20.5317 21.1023 20.815L25.1389 24.8516C23.9856 26.005 22.6704 26.8851 21.1933 27.4921C19.7163 28.0992 18.1684 28.4027 16.5497 28.4027Z" fill="white"/>
</g>
</g>
</g>
<defs>
<filter id="filter0_d_3287_803" x="0.800781" y="4.12207" width="29.8906" height="29.8584" filterUnits="userSpaceOnUse" color-interpolation-filters="sRGB">
<feFlood flood-opacity="0" result="BackgroundImageFix"/>
<feColorMatrix in="SourceAlpha" type="matrix" values="0 0 0 0 0 0 0 0 0 0 0 0 0 0 0 0 0 0 127 0" result="hardAlpha"/>
<feOffset dy="2"/>
<feGaussianBlur stdDeviation="1"/>
<feComposite in2="hardAlpha" operator="out"/>
<feColorMatrix type="matrix" values="0 0 0 0 0 0 0 0 0 0 0 0 0 0 0 0 0 0 0.2 0"/>
<feBlend mode="normal" in2="BackgroundImageFix" result="effect1_dropShadow_3287_803"/>
<feBlend mode="normal" in="SourceGraphic" in2="effect1_dropShadow_3287_803" result="shape"/>
</filter>
</defs>
</svg>
