<svg width="37" height="27" viewBox="0 0 37 27" fill="none" xmlns="http://www.w3.org/2000/svg">
<path d="M35.3182 0H1.68182C1.23577 0 0.807995 0.17779 0.492593 0.494258C0.177191 0.810725 0 1.23995 0 1.6875V25.3125C0 25.7601 0.177191 26.1893 0.492593 26.5057C0.807995 26.8222 1.23577 27 1.68182 27H35.3182C35.7642 27 36.192 26.8222 36.5074 26.5057C36.8228 26.1893 37 25.7601 37 25.3125V1.6875C37 1.23995 36.8228 0.810725 36.5074 0.494258C36.192 0.17779 35.7642 0 35.3182 0ZM33.6364 23.625H3.36364V3.375H33.6364V23.625ZM25.2273 20.25H28.5909C29.037 20.25 29.4647 20.0722 29.7801 19.7557C30.0955 19.4393 30.2727 19.0101 30.2727 18.5625C30.2727 18.1149 30.0955 17.6857 29.7801 17.3693C29.4647 17.0528 29.037 16.875 28.5909 16.875H25.2273C24.7812 16.875 24.3534 17.0528 24.038 17.3693C23.7226 17.6857 23.5455 18.1149 23.5455 18.5625C23.5455 19.0101 23.7226 19.4393 24.038 19.7557C24.3534 20.0722 24.7812 20.25 25.2273 20.25Z" fill="white"/>
<path d="M17.6271 14.4838C18.3915 13.5252 18.8121 12.3364 18.8212 11.1088C18.8212 9.63631 18.2382 8.22417 17.2006 7.18299C16.1629 6.14181 14.7555 5.55688 13.288 5.55688C11.8205 5.55688 10.4131 6.14181 9.37546 7.18299C8.33779 8.22417 7.75483 9.63631 7.75483 11.1088C7.76395 12.3364 8.18456 13.5252 8.94892 14.4838C7.4498 15.3991 6.27365 16.7622 5.58529 18.3819C5.48894 18.5874 5.43493 18.8103 5.42649 19.0372C5.41805 19.2642 5.45535 19.4905 5.53616 19.7027C5.61697 19.9148 5.73962 20.1084 5.89678 20.2718C6.05393 20.4353 6.24234 20.5652 6.45074 20.6539C6.65913 20.7425 6.88321 20.788 7.10955 20.7877C7.33589 20.7874 7.55984 20.7412 7.76798 20.652C7.97612 20.5627 8.16416 20.4322 8.32085 20.2683C8.47753 20.1045 8.59963 19.9105 8.67983 19.6981C9.06637 18.7915 9.70838 18.0179 10.527 17.4723C11.3456 16.9267 12.3053 16.6329 13.288 16.6269C14.2736 16.6296 15.2369 16.9219 16.0588 17.4677C16.8807 18.0135 17.5253 18.7889 17.913 19.6981C18.0418 20.0031 18.2571 20.2634 18.5323 20.4464C18.8074 20.6295 19.1302 20.7272 19.4603 20.7275C19.6853 20.7233 19.9077 20.6775 20.1162 20.5925C20.5263 20.4177 20.8506 20.0867 21.0177 19.6722C21.1848 19.2578 21.1812 18.7937 21.0076 18.3819C20.3148 16.7598 19.1325 15.3964 17.6271 14.4838ZM13.288 13.2519C12.8582 13.2519 12.4381 13.1238 12.0809 12.8838C11.7238 12.6439 11.4458 12.3029 11.2821 11.9041C11.1184 11.5054 11.0764 11.0668 11.1615 10.6441C11.2466 10.2214 11.4549 9.83351 11.76 9.52975C12.0651 9.22599 12.4532 9.02 12.8752 8.93792C13.2971 8.85584 13.7339 8.90137 14.13 9.06872C14.5261 9.23608 14.8638 9.51772 15.1001 9.87791C15.3365 10.2381 15.4609 10.6606 15.4576 11.0919C15.4531 11.6663 15.2226 12.2157 14.8162 12.6203C14.4098 13.0249 13.8605 13.2519 13.288 13.2519Z" fill="white"/>
<path d="M28.5909 13.5H25.2273C24.7812 13.5 24.3534 13.3222 24.038 13.0057C23.7226 12.6893 23.5455 12.2601 23.5455 11.8125C23.5455 11.3649 23.7226 10.9357 24.038 10.6193C24.3534 10.3028 24.7812 10.125 25.2273 10.125H28.5909C29.037 10.125 29.4647 10.3028 29.7801 10.6193C30.0955 10.9357 30.2727 11.3649 30.2727 11.8125C30.2727 12.2601 30.0955 12.6893 29.7801 13.0057C29.4647 13.3222 29.037 13.5 28.5909 13.5Z" fill="white"/>
</svg>
