<svg width="36" height="26" viewBox="0 0 36 26" fill="none" xmlns="http://www.w3.org/2000/svg">
<path d="M26.1818 11.375H27.8182C28.2522 11.375 28.6684 11.2038 28.9753 10.899C29.2821 10.5943 29.4545 10.181 29.4545 9.75V8.125C29.4545 7.69402 29.2821 7.2807 28.9753 6.97595C28.6684 6.67121 28.2522 6.5 27.8182 6.5H26.1818C25.7478 6.5 25.3316 6.67121 25.0247 6.97595C24.7179 7.2807 24.5455 7.69402 24.5455 8.125V9.75C24.5455 10.181 24.7179 10.5943 25.0247 10.899C25.3316 11.2038 25.7478 11.375 26.1818 11.375ZM8.18182 13H16.3636C16.7976 13 17.2138 12.8288 17.5207 12.524C17.8276 12.2193 18 11.806 18 11.375C18 10.944 17.8276 10.5307 17.5207 10.226C17.2138 9.92121 16.7976 9.75 16.3636 9.75H8.18182C7.74783 9.75 7.33161 9.92121 7.02473 10.226C6.71786 10.5307 6.54545 10.944 6.54545 11.375C6.54545 11.806 6.71786 12.2193 7.02473 12.524C7.33161 12.8288 7.74783 13 8.18182 13ZM34.3636 0H1.63636C1.20237 0 0.786157 0.171205 0.47928 0.475952C0.172402 0.780698 0 1.19402 0 1.625V24.375C0 24.806 0.172402 25.2193 0.47928 25.524C0.786157 25.8288 1.20237 26 1.63636 26H34.3636C34.7976 26 35.2138 25.8288 35.5207 25.524C35.8276 25.2193 36 24.806 36 24.375V1.625C36 1.19402 35.8276 0.780698 35.5207 0.475952C35.2138 0.171205 34.7976 0 34.3636 0ZM32.7273 22.75H3.27273V3.25H32.7273V22.75ZM8.18182 19.5H16.3636C16.7976 19.5 17.2138 19.3288 17.5207 19.024C17.8276 18.7193 18 18.306 18 17.875C18 17.444 17.8276 17.0307 17.5207 16.726C17.2138 16.4212 16.7976 16.25 16.3636 16.25H8.18182C7.74783 16.25 7.33161 16.4212 7.02473 16.726C6.71786 17.0307 6.54545 17.444 6.54545 17.875C6.54545 18.306 6.71786 18.7193 7.02473 19.024C7.33161 19.3288 7.74783 19.5 8.18182 19.5Z" fill="white"/>
</svg>
