<svg width="58" height="58" viewBox="0 0 58 58" fill="none" xmlns="http://www.w3.org/2000/svg">
<g filter="url(#filter0_d_3508_664)">
<circle cx="29" cy="27" r="25.5" fill="#02284A" stroke="url(#paint0_linear_3508_664)" stroke-width="3"/>
<g clip-path="url(#clip0_3508_664)">
<path d="M29.3674 18.751L32.0712 24.2286L38.1175 25.1124L33.7424 29.3737L34.775 35.3938L29.3674 32.55L23.9598 35.3938L24.9923 29.3737L20.6172 25.1124L26.6636 24.2286L29.3674 18.751Z" stroke="white" stroke-width="2" stroke-linecap="round" stroke-linejoin="round"/>
</g>
<path d="M40.8805 19.4327L43.1977 18.3672L43.1568 18.2739C43.4735 18.0742 43.8565 18.0084 44.2217 18.0911C44.5869 18.1739 44.9043 18.3982 45.104 18.715C45.3038 19.0317 45.3695 19.4148 45.2868 19.7799C45.2041 20.1451 44.9797 20.4625 44.663 20.6622L44.3827 20.8945L42.0655 21.9599C41.8976 22.0556 41.7118 22.1154 41.5197 22.1357C41.3275 22.156 41.1333 22.1363 40.9491 22.0779C40.765 22.0194 40.5949 21.9235 40.4496 21.7961C40.3044 21.6688 40.187 21.5127 40.105 21.3378C40.023 21.1628 39.9781 20.9728 39.9731 20.7797C39.9681 20.5866 40.0031 20.3945 40.0759 20.2155C40.1488 20.0366 40.2579 19.8747 40.3963 19.7399C40.5348 19.6052 40.6997 19.5006 40.8805 19.4327Z" fill="white"/>
<path d="M40.8963 28.8756C41.076 28.9155 41.246 28.9904 41.3966 29.096L43.5454 30.5702C43.6966 30.6765 43.8253 30.8117 43.924 30.968C44.0227 31.1243 44.0895 31.2986 44.1205 31.4808C44.1514 31.6631 44.146 31.8496 44.1045 32.0298C44.063 32.2099 43.9863 32.38 43.8787 32.5304C43.7943 32.6181 43.7003 32.696 43.5984 32.7626C43.3619 32.9726 43.0613 33.0964 42.7455 33.1137C42.4298 33.1311 42.1174 33.041 41.8594 32.8581L39.7805 31.3806C39.4804 31.1665 39.2769 30.8426 39.2141 30.4793C39.1514 30.116 39.2345 29.7426 39.4454 29.4401C39.5508 29.2893 39.685 29.1608 39.8401 29.0618C39.9953 28.9629 40.1684 28.8955 40.3497 28.8636C40.5309 28.8316 40.7167 28.8357 40.8963 28.8756Z" fill="white"/>
<path d="M42.7457 24.6878C43.0083 24.4525 43.3501 24.325 43.7027 24.3307L46.2456 24.5691C46.6138 24.6047 46.9529 24.7845 47.1889 25.0693C47.4249 25.3541 47.5386 25.7207 47.5051 26.0891C47.4695 26.4572 47.2897 26.7963 47.0049 27.0323C46.7201 27.2683 46.3535 27.382 45.9851 27.3486L43.4421 27.1102C43.0946 27.0503 42.7825 26.8615 42.5682 26.5815C42.3539 26.3015 42.2531 25.951 42.286 25.5999C42.3189 25.2488 42.4831 24.9231 42.7457 24.6878Z" fill="white"/>
<path d="M18.8061 31.513L16.5985 32.79L16.648 32.8791C16.3513 33.1075 15.976 33.2088 15.6047 33.1605C15.2334 33.1122 14.8965 32.9184 14.6681 32.6217C14.4396 32.325 14.3384 31.9498 14.3867 31.5785C14.435 31.2071 14.6288 30.8702 14.9255 30.6418L15.1829 30.3844L17.3905 29.1073C17.5487 28.9965 17.7282 28.9195 17.9176 28.8814C18.107 28.8433 18.3022 28.8448 18.491 28.8858C18.6798 28.9268 18.8581 29.0064 19.0146 29.1197C19.1711 29.2329 19.3025 29.3773 19.4005 29.5438C19.4985 29.7104 19.5609 29.8953 19.584 30.0872C19.607 30.279 19.59 30.4735 19.5342 30.6585C19.4784 30.8434 19.3849 31.0148 19.2596 31.1619C19.1343 31.3089 18.9799 31.4285 18.8061 31.513Z" fill="white"/>
<path d="M17.9092 22.1128C17.7266 22.0898 17.5504 22.0311 17.3905 21.94L15.1136 20.6728C14.9531 20.5811 14.8123 20.4585 14.6995 20.3121C14.5866 20.1656 14.5039 19.9983 14.456 19.8198C14.4082 19.6412 14.3961 19.455 14.4206 19.2717C14.4451 19.0885 14.5057 18.912 14.5988 18.7523C14.6746 18.657 14.7609 18.5707 14.8562 18.4949C15.072 18.2637 15.3598 18.1124 15.6725 18.0657C15.9853 18.019 16.3047 18.0795 16.5787 18.2375L18.7863 19.5145C19.1051 19.6997 19.338 20.0032 19.4344 20.3591C19.5308 20.715 19.4829 21.0945 19.3011 21.4153C19.2102 21.5753 19.0887 21.7158 18.9434 21.8288C18.7981 21.9418 18.632 22.025 18.4546 22.0737C18.2771 22.1225 18.0918 22.1357 17.9092 22.1128Z" fill="white"/>
<path d="M16.4587 26.4549C16.2192 26.7136 15.8908 26.8725 15.5392 26.8997L12.9851 26.8997C12.6153 26.8986 12.2609 26.7512 11.9993 26.4897C11.7378 26.2281 11.5904 25.8737 11.5893 25.5039C11.5904 25.134 11.7378 24.7796 11.9993 24.518C12.2609 24.2565 12.6153 24.1091 12.9851 24.108L15.5392 24.108C15.8908 24.1352 16.2192 24.2941 16.4587 24.5528C16.6982 24.8116 16.8313 25.1512 16.8313 25.5038C16.8313 25.8565 16.6982 26.1961 16.4587 26.4549Z" fill="white"/>
</g>
<defs>
<filter id="filter0_d_3508_664" x="0" y="0" width="58" height="58" filterUnits="userSpaceOnUse" color-interpolation-filters="sRGB">
<feFlood flood-opacity="0" result="BackgroundImageFix"/>
<feColorMatrix in="SourceAlpha" type="matrix" values="0 0 0 0 0 0 0 0 0 0 0 0 0 0 0 0 0 0 127 0" result="hardAlpha"/>
<feOffset dy="2"/>
<feGaussianBlur stdDeviation="1"/>
<feComposite in2="hardAlpha" operator="out"/>
<feColorMatrix type="matrix" values="0 0 0 0 0 0 0 0 0 0 0 0 0 0 0 0 0 0 0.2 0"/>
<feBlend mode="normal" in2="BackgroundImageFix" result="effect1_dropShadow_3508_664"/>
<feBlend mode="normal" in="SourceGraphic" in2="effect1_dropShadow_3508_664" result="shape"/>
</filter>
<linearGradient id="paint0_linear_3508_664" x1="18.8754" y1="5.3582" x2="57.5519" y2="28.5313" gradientUnits="userSpaceOnUse">
<stop stop-color="#13E6C0"/>
<stop offset="0.509176" stop-color="#5D98F0"/>
<stop offset="1" stop-color="#E020F1"/>
</linearGradient>
<clipPath id="clip0_3508_664">
<rect width="21.0004" height="21.0004" fill="white" transform="translate(18.8672 17.001)"/>
</clipPath>
</defs>
</svg>
