<svg width="58" height="58" viewBox="0 0 58 58" fill="none" xmlns="http://www.w3.org/2000/svg">
<g filter="url(#filter0_d_3508_648)">
<circle cx="29" cy="27" r="25.5" fill="#02284A" stroke="url(#paint0_linear_3508_648)" stroke-width="3"/>
<g filter="url(#filter1_d_3508_648)">
<path d="M39.67 23.8932V23.6666C39.6781 21.3985 38.9585 19.1876 37.6169 17.3588C36.2753 15.5301 34.3825 14.1798 32.2167 13.5066H32.1367C31.0181 13.1655 29.8526 13.0035 28.6833 13.0266C25.8991 13.1794 23.2781 14.3889 21.3553 16.4083C19.4325 18.4278 18.3529 21.1049 18.3367 23.8932C17.5554 24.1681 16.8786 24.6787 16.3999 25.3546C15.9212 26.0305 15.6641 26.8383 15.6641 27.6666C15.6641 28.4948 15.9212 29.3026 16.3999 29.9785C16.8786 30.6544 17.5554 31.165 18.3367 31.4399C18.6113 34.0729 19.8552 36.5098 21.8266 38.2766C23.7981 40.0435 26.3561 41.0142 29.0033 40.9999H29.31C31.87 40.876 34.3032 39.849 36.1778 38.1013C38.0525 36.3536 39.2472 33.9982 39.55 31.4532C40.3405 31.1939 41.0305 30.6946 41.5239 30.0247C42.0173 29.3549 42.2896 28.5478 42.3028 27.716C42.316 26.8841 42.0695 26.0688 41.5976 25.3837C41.1257 24.6985 40.4519 24.1775 39.67 23.8932ZM29.2433 38.3332C27.3132 38.3891 25.428 37.7449 23.9356 36.5196C22.4432 35.2943 21.4444 33.5706 21.1233 31.6666H36.8167C36.4913 33.4691 35.566 35.1086 34.1911 36.3189C32.8163 37.5292 31.0726 38.2391 29.2433 38.3332ZM38.3367 28.9999H19.67C19.3164 28.9999 18.9772 28.8594 18.7272 28.6094C18.4772 28.3593 18.3367 28.0202 18.3367 27.6666C18.3367 27.3129 18.4772 26.9738 18.7272 26.7238C18.9772 26.4737 19.3164 26.3332 19.67 26.3332H21.0033C21.357 26.3332 21.6961 26.1928 21.9462 25.9427C22.1962 25.6927 22.3367 25.3535 22.3367 24.9999C22.3367 24.6463 22.1962 24.3071 21.9462 24.0571C21.6961 23.807 21.357 23.6666 21.0033 23.6666C21.063 22.2834 21.4584 20.9355 22.1552 19.7392C22.8521 18.5429 23.8296 17.5341 25.0033 16.7999C25.6745 16.333 26.2099 16.0305 27.67 15.7866C28.0319 15.7261 28.3969 15.686 28.7633 15.6666H29.0033C29.4502 15.6729 29.8959 15.713 30.3367 15.7866C31.1628 15.9245 32.6413 16.5502 33.0033 16.7599C33.5689 17.0874 34.0966 17.4764 34.5767 17.9199C35.3454 18.6664 35.9564 19.5598 36.3732 20.547C36.7901 21.5341 37.0043 22.595 37.0033 23.6666C36.6497 23.6666 36.3106 23.807 36.0605 24.0571C35.8105 24.3071 35.67 24.6463 35.67 24.9999C35.67 25.3535 35.8105 25.6927 36.0605 25.9427C36.3106 26.1928 36.6497 26.3332 37.0033 26.3332H38.3367C38.6903 26.3332 39.0294 26.4737 39.2795 26.7238C39.5295 26.9738 39.67 27.3129 39.67 27.6666C39.67 28.0202 39.5295 28.3593 39.2795 28.6094C39.0294 28.8594 38.6903 28.9999 38.3367 28.9999Z" fill="white"/>
</g>
</g>
<defs>
<filter id="filter0_d_3508_648" x="0" y="0" width="58" height="58" filterUnits="userSpaceOnUse" color-interpolation-filters="sRGB">
<feFlood flood-opacity="0" result="BackgroundImageFix"/>
<feColorMatrix in="SourceAlpha" type="matrix" values="0 0 0 0 0 0 0 0 0 0 0 0 0 0 0 0 0 0 127 0" result="hardAlpha"/>
<feOffset dy="2"/>
<feGaussianBlur stdDeviation="1"/>
<feComposite in2="hardAlpha" operator="out"/>
<feColorMatrix type="matrix" values="0 0 0 0 0 0 0 0 0 0 0 0 0 0 0 0 0 0 0.2 0"/>
<feBlend mode="normal" in2="BackgroundImageFix" result="effect1_dropShadow_3508_648"/>
<feBlend mode="normal" in="SourceGraphic" in2="effect1_dropShadow_3508_648" result="shape"/>
</filter>
<filter id="filter1_d_3508_648" x="11" y="11" width="36" height="36" filterUnits="userSpaceOnUse" color-interpolation-filters="sRGB">
<feFlood flood-opacity="0" result="BackgroundImageFix"/>
<feColorMatrix in="SourceAlpha" type="matrix" values="0 0 0 0 0 0 0 0 0 0 0 0 0 0 0 0 0 0 127 0" result="hardAlpha"/>
<feOffset dy="2"/>
<feGaussianBlur stdDeviation="1"/>
<feComposite in2="hardAlpha" operator="out"/>
<feColorMatrix type="matrix" values="0 0 0 0 0 0 0 0 0 0 0 0 0 0 0 0 0 0 0.2 0"/>
<feBlend mode="normal" in2="BackgroundImageFix" result="effect1_dropShadow_3508_648"/>
<feBlend mode="normal" in="SourceGraphic" in2="effect1_dropShadow_3508_648" result="shape"/>
</filter>
<linearGradient id="paint0_linear_3508_648" x1="18.8754" y1="5.3582" x2="57.5519" y2="28.5313" gradientUnits="userSpaceOnUse">
<stop stop-color="#13E6C0"/>
<stop offset="0.509176" stop-color="#5D98F0"/>
<stop offset="1" stop-color="#E020F1"/>
</linearGradient>
</defs>
</svg>
