<svg width="16" height="16" viewBox="0 0 16 16" fill="none" xmlns="http://www.w3.org/2000/svg">
<path id="Vector" d="M7.20018 3.9997H8.80042V5.59994H7.20018V3.9997ZM7.20018 7.20018H8.80042V12.0003H7.20018V7.20018ZM8 0C3.58389 0 0 3.58389 0 8C0 12.4161 3.58389 16 8 16C12.4161 16 16 12.4161 16 8C16 3.58389 12.4161 0 8 0ZM8 14.4004C4.47191 14.4004 1.59964 11.5281 1.59964 8C1.59964 4.47191 4.47191 1.59964 8 1.59964C11.5281 1.59964 14.4004 4.47191 14.4004 8C14.4004 11.5281 11.5281 14.4004 8 14.4004Z" fill="#F3AA64"/>
</svg>
