<svg width="58" height="58" viewBox="0 0 58 58" fill="none" xmlns="http://www.w3.org/2000/svg">
<g filter="url(#filter0_d_3508_656)">
<circle cx="29" cy="27" r="25.5" fill="#02284A" stroke="url(#paint0_linear_3508_656)" stroke-width="3"/>
<g filter="url(#filter1_d_3508_656)">
<path d="M42.1741 22.2952C42.1741 22.2952 42.1741 22.2952 42.1741 22.2113C41.1963 19.5195 39.4138 17.1925 37.0679 15.5451C34.7219 13.8976 31.9257 13.0092 29.0574 13.0001C26.1892 12.9909 23.3873 13.8615 21.0308 15.4939C18.6744 17.1264 16.8771 19.442 15.8821 22.1274C15.8282 22.233 15.7904 22.3461 15.7701 22.4629C15.2633 23.9142 15.003 25.44 15.0001 26.977C14.9931 29.0175 15.4339 31.0347 16.2914 32.887C17.1488 34.7393 18.4022 36.3817 19.9634 37.6987C21.5246 39.0158 23.3558 39.9757 25.3283 40.5108C27.3008 41.0459 29.3668 41.1434 31.3811 40.7964C33.3954 40.4493 35.3091 39.6662 36.9878 38.502C38.6665 37.3378 40.0694 35.8207 41.0981 34.0574C42.1267 32.2941 42.7561 30.3274 42.942 28.2953C43.1279 26.2633 42.8658 24.2153 42.1741 22.2952ZM29.0001 15.7965C30.9641 15.7985 32.8931 16.3161 34.5936 17.2973C36.294 18.2785 37.706 19.6888 38.6881 21.3867H37.0081C36.5918 20.9299 36.0795 20.5706 35.5079 20.3343C34.9363 20.0981 34.3195 19.9908 33.7016 20.0202C33.0836 20.0496 32.4798 20.2149 31.9333 20.5042C31.3868 20.7936 30.911 21.2 30.5401 21.6942C30.0491 21.5011 29.5276 21.397 29.0001 21.3867C28.4725 21.397 27.951 21.5011 27.4601 21.6942C27.0891 21.2 26.6134 20.7936 26.0669 20.5042C25.5204 20.2149 24.9165 20.0496 24.2986 20.0202C23.6807 19.9908 23.0638 20.0981 22.4922 20.3343C21.9206 20.5706 21.4084 20.9299 20.9921 21.3867H19.3121C20.2941 19.6888 21.7062 18.2785 23.4066 17.2973C25.107 16.3161 27.036 15.7985 29.0001 15.7965ZM35.3001 24.1819C35.3001 24.4583 35.218 24.7285 35.0641 24.9583C34.9103 25.1881 34.6917 25.3673 34.4358 25.473C34.18 25.5788 33.8985 25.6065 33.627 25.5526C33.3554 25.4986 33.1059 25.3655 32.9101 25.1701C32.7143 24.9746 32.581 24.7256 32.527 24.4545C32.473 24.1834 32.5007 23.9024 32.6066 23.647C32.7126 23.3917 32.8921 23.1734 33.1223 23.0198C33.3525 22.8663 33.6232 22.7843 33.9001 22.7843C34.2714 22.7843 34.6275 22.9315 34.89 23.1936C35.1526 23.4557 35.3001 23.8112 35.3001 24.1819ZM25.5001 24.1819C25.5001 24.4583 25.418 24.7285 25.2641 24.9583C25.1103 25.1881 24.8917 25.3673 24.6358 25.473C24.38 25.5788 24.0985 25.6065 23.827 25.5526C23.5554 25.4986 23.3059 25.3655 23.1101 25.1701C22.9143 24.9746 22.781 24.7256 22.727 24.4545C22.673 24.1834 22.7007 23.9024 22.8066 23.647C22.9126 23.3917 23.0921 23.1734 23.3223 23.0198C23.5525 22.8663 23.8232 22.7843 24.1001 22.7843C24.4714 22.7843 24.8275 22.9315 25.09 23.1936C25.3526 23.4557 25.5001 23.8112 25.5001 24.1819ZM29.0001 38.1575C26.0297 38.1575 23.1809 36.9795 21.0805 34.8828C18.9801 32.786 17.8001 29.9422 17.8001 26.977C17.8063 26.0339 17.9286 25.0952 18.1641 24.1819H19.9001C19.8667 25.2938 20.2771 26.3735 21.0411 27.1834C21.8052 27.9933 22.8602 28.467 23.9741 28.5003C25.088 28.5337 26.1696 28.124 26.9808 27.3613C27.7921 26.5986 28.2667 25.5454 28.3001 24.4334C28.5129 24.3108 28.7543 24.2462 29.0001 24.2462C29.2458 24.2462 29.4873 24.3108 29.7001 24.4334C29.7335 25.5454 30.208 26.5986 31.0193 27.3613C31.8306 28.124 32.9122 28.5337 34.0261 28.5003C35.14 28.467 36.195 27.9933 36.959 27.1834C37.723 26.3735 38.1335 25.2938 38.1001 24.1819H39.8361C40.0716 25.0952 40.1939 26.0339 40.2001 26.977C40.2001 29.9422 39.0201 32.786 36.9197 34.8828C34.8193 36.9795 31.9705 38.1575 29.0001 38.1575ZM32.3041 30.0936C31.3682 30.8468 30.2023 31.2576 29.0001 31.2576C27.7979 31.2576 26.632 30.8468 25.6961 30.0936C25.4102 29.8563 25.0416 29.7422 24.6714 29.7763C24.3012 29.8103 23.9597 29.9898 23.7221 30.2752C23.4844 30.5606 23.3701 30.9286 23.4043 31.2981C23.4384 31.6677 23.6182 32.0086 23.9041 32.2458C25.334 33.4374 27.1375 34.0901 29.0001 34.0901C30.8627 34.0901 32.6662 33.4374 34.0961 32.2458C34.382 32.0086 34.5618 31.6677 34.5959 31.2981C34.63 30.9286 34.5157 30.5606 34.2781 30.2752C34.1604 30.1339 34.016 30.0171 33.8531 29.9315C33.6903 29.8459 33.5121 29.7931 33.3288 29.7763C32.9586 29.7422 32.59 29.8563 32.3041 30.0936Z" fill="white"/>
</g>
</g>
<defs>
<filter id="filter0_d_3508_656" x="0" y="0" width="58" height="58" filterUnits="userSpaceOnUse" color-interpolation-filters="sRGB">
<feFlood flood-opacity="0" result="BackgroundImageFix"/>
<feColorMatrix in="SourceAlpha" type="matrix" values="0 0 0 0 0 0 0 0 0 0 0 0 0 0 0 0 0 0 127 0" result="hardAlpha"/>
<feOffset dy="2"/>
<feGaussianBlur stdDeviation="1"/>
<feComposite in2="hardAlpha" operator="out"/>
<feColorMatrix type="matrix" values="0 0 0 0 0 0 0 0 0 0 0 0 0 0 0 0 0 0 0.2 0"/>
<feBlend mode="normal" in2="BackgroundImageFix" result="effect1_dropShadow_3508_656"/>
<feBlend mode="normal" in="SourceGraphic" in2="effect1_dropShadow_3508_656" result="shape"/>
</filter>
<filter id="filter1_d_3508_656" x="13" y="13" width="32" height="32" filterUnits="userSpaceOnUse" color-interpolation-filters="sRGB">
<feFlood flood-opacity="0" result="BackgroundImageFix"/>
<feColorMatrix in="SourceAlpha" type="matrix" values="0 0 0 0 0 0 0 0 0 0 0 0 0 0 0 0 0 0 127 0" result="hardAlpha"/>
<feOffset dy="2"/>
<feGaussianBlur stdDeviation="1"/>
<feComposite in2="hardAlpha" operator="out"/>
<feColorMatrix type="matrix" values="0 0 0 0 0 0 0 0 0 0 0 0 0 0 0 0 0 0 0.2 0"/>
<feBlend mode="normal" in2="BackgroundImageFix" result="effect1_dropShadow_3508_656"/>
<feBlend mode="normal" in="SourceGraphic" in2="effect1_dropShadow_3508_656" result="shape"/>
</filter>
<linearGradient id="paint0_linear_3508_656" x1="18.8754" y1="5.3582" x2="57.5519" y2="28.5313" gradientUnits="userSpaceOnUse">
<stop stop-color="#13E6C0"/>
<stop offset="0.509176" stop-color="#5D98F0"/>
<stop offset="1" stop-color="#E020F1"/>
</linearGradient>
</defs>
</svg>
