<svg xmlns="http://www.w3.org/2000/svg" width="24" height="24" viewBox="0 0 24 24" fill="none">
  <circle cx="12" cy="12" r="12" fill="white"/>
  <path d="M18.6764 10.7897C18.2461 9.64459 17.3174 8.74168 16.117 8.31225C14.5429 7.75069 12.9121 7.9599 11.6211 8.88483L11.4965 8.97292L11.4286 8.92887C10.1376 7.9599 8.47282 7.73967 6.88736 8.31225C5.69827 8.74168 4.76964 9.63358 4.32798 10.7787C3.76174 12.2542 3.93161 13.8178 4.81494 15.051C5.68694 16.2733 7.10253 17 8.62005 17C9.71854 17 10.5566 16.7247 11.4286 16.0751C11.4512 16.0641 11.4739 16.053 11.4852 16.053C11.5305 16.053 11.5645 16.0861 11.6324 16.1191C12.4818 16.7027 13.3991 17 14.3617 17C15.9132 17 17.3061 16.3173 18.1668 15.1171C19.0614 13.8839 19.2426 12.3093 18.6764 10.7897ZM17.4194 13.4324C17.1249 14.4124 16.3095 15.1832 15.3016 15.4695C14.441 15.7007 13.5576 15.6016 12.8102 15.1832C12.7536 15.1501 12.7196 15.1061 12.7196 15.04C12.7083 14.974 12.7309 14.9189 12.7875 14.8749L14.4863 13.3663C14.5542 13.3003 14.6675 13.3003 14.7354 13.3553C14.9732 13.5315 15.1204 13.5976 15.1771 13.5976L15.6414 11.6596C15.6527 11.5936 15.6414 11.5275 15.5961 11.4834C15.5508 11.4284 15.4828 11.4064 15.4149 11.4174L13.3764 11.6376C13.3651 11.6376 13.3425 11.6376 13.3311 11.6486C13.3311 11.7147 13.4444 11.9459 13.5916 12.1441L13.6482 12.2212L10.432 15.051C9.88842 15.4144 9.27688 15.6016 8.63137 15.6016C8.33693 15.6016 8.05381 15.5686 7.75937 15.4915C6.71749 15.2162 5.89079 14.4344 5.58502 13.4434C5.29058 12.4634 5.46045 11.4504 6.07198 10.6576C6.67219 9.87583 7.62347 9.41336 8.62005 9.41336C9.17496 9.41336 9.71854 9.5565 10.1942 9.82077C10.2508 9.8538 10.2848 9.89785 10.2961 9.96391C10.3074 10.03 10.2848 10.085 10.2282 10.1291L8.4615 11.6927C8.39355 11.7587 8.29163 11.7587 8.21236 11.7037C7.97454 11.5275 7.82732 11.4724 7.78202 11.4724L7.3177 13.4104C7.30638 13.4765 7.3177 13.5425 7.363 13.5866C7.4083 13.6416 7.47625 13.6636 7.5442 13.6526L9.58265 13.4324C9.61662 13.4324 9.63927 13.4214 9.66192 13.3994C9.66192 13.3553 9.6053 13.2342 9.40145 12.992C9.3335 12.9149 9.34483 12.8048 9.4241 12.7277L12.5044 9.98594C12.5158 9.97493 12.5158 9.97493 12.5271 9.97493C13.0707 9.60055 13.7048 9.39134 14.373 9.39134C15.3696 9.39134 16.3209 9.8538 16.9211 10.6356C17.5326 11.4394 17.7138 12.4634 17.4194 13.4324Z" fill="url(#paint0_linear_2337_565)"/>
  <defs>
    <linearGradient id="paint0_linear_2337_565" x1="8.33607" y1="8.44216" x2="16.5603" y2="16.6548" gradientUnits="userSpaceOnUse">
      <stop stop-color="#13E6C0"/>
      <stop offset="0.509176" stop-color="#5D98F0"/>
      <stop offset="1" stop-color="#E020F1"/>
    </linearGradient>
  </defs>
</svg>