<svg width="190" height="83" viewBox="0 0 190 83" fill="none" xmlns="http://www.w3.org/2000/svg">
<g id="Group">
<path id="Vector" d="M2.37566 63.4752C3.00916 63.4752 3.58988 63.2641 4.06501 62.8417C4.54014 62.4194 4.8041 61.7859 4.8041 61.0996C4.8041 60.4133 4.54014 59.8326 4.06501 59.3574C3.58988 58.8823 3.00916 58.6711 2.37566 58.6711C1.68936 58.6711 1.10864 58.9351 0.686301 59.4102C0.263962 59.8854 0 60.4661 0 61.1524C0 61.8387 0.263962 62.4194 0.686301 62.8945C1.16143 63.2641 1.74215 63.4752 2.37566 63.4752Z" fill="#30C2E2"/>
<path id="Vector_2" d="M2.42886 66.8539C1.16185 66.8539 0.739508 67.6458 0.581131 67.9625C0.422754 68.3849 0.317169 68.9128 0.317169 69.4935V79.6296C0.317169 80.2631 0.369961 80.7911 0.528338 81.2134C0.633923 81.5302 1.05626 82.322 2.32328 82.322C2.79841 82.322 3.16796 82.2165 3.43192 82.0581C3.74867 81.8469 3.95984 81.5829 4.11822 81.2134C4.2238 80.9494 4.27659 80.6855 4.32939 80.3687C4.32939 80.1575 4.38218 79.8936 4.38218 79.6296V69.4407C4.38218 68.9128 4.32939 68.4377 4.17101 68.0153C4.06543 67.6986 3.64309 66.8539 2.42886 66.8539Z" fill="#30C2E2"/>
<path id="Vector_3" d="M33.8395 61.6804C31.939 60.2022 29.0354 59.4103 25.2343 59.4103C23.4394 59.4103 21.6972 59.5687 20.1135 59.9382C18.4769 60.3077 17.0515 60.9413 15.8901 61.8387C14.6759 62.7362 13.7256 63.9504 12.9865 65.4286C12.3002 66.9068 11.9307 68.7545 11.9307 70.919C11.9307 72.5556 12.1418 74.0866 12.5642 75.4592C12.9865 76.8846 13.7256 78.0988 14.6759 79.1018C15.6261 80.1049 16.8931 80.8968 18.4241 81.4775C19.9023 82.0054 21.75 82.3222 23.8617 82.3222C25.8678 82.3222 27.61 82.1638 29.0354 81.8998C30.4608 81.6359 31.7278 81.3191 32.7308 80.9496C33.7339 80.58 34.5258 80.2105 35.1065 79.8409C35.7928 79.4186 36.0568 79.1546 36.2151 79.049C36.5319 78.7851 36.6903 78.4683 36.6903 78.046C36.6903 77.6764 36.5319 77.3069 36.2679 76.9901C35.8984 76.5678 35.5288 76.515 35.2649 76.515C35.1593 76.515 35.0537 76.515 34.8425 76.6206C34.7897 76.6206 34.737 76.6734 34.6842 76.6734C34.3674 76.8845 33.9451 77.1485 33.4171 77.4653C32.8892 77.782 32.2029 78.046 31.3055 78.3627C30.4608 78.6795 29.4049 78.8907 28.1907 79.1018C26.9765 79.313 25.5511 79.4186 23.9145 79.4186C22.4891 79.4186 21.2221 79.2602 20.1663 78.9434C19.1632 78.6267 18.2657 78.1516 17.5794 77.5181C16.8931 76.8845 16.3652 76.0399 15.9957 74.984C15.6789 74.0866 15.4678 72.9251 15.415 71.6581H35.5816C35.9512 71.6581 36.2151 71.4469 36.3735 70.9718C36.4791 70.7606 36.5319 70.4967 36.6375 70.1799C36.6903 69.8632 36.7431 69.5464 36.7959 69.2297C36.8487 68.9129 36.8487 68.5962 36.8487 68.3322C36.8487 65.4286 35.8456 63.2113 33.8395 61.6804ZM16.1541 66.2733C16.5764 65.3758 17.2099 64.6367 18.0018 64.056C18.7937 63.4753 19.8495 63.053 21.0109 62.789C22.2252 62.525 23.6506 62.3667 25.2343 62.3667C26.9237 62.3667 28.3491 62.525 29.4577 62.8418C30.5664 63.1585 31.4638 63.5809 32.1501 64.1088C32.7836 64.6367 33.2588 65.2702 33.5755 65.9037C33.8395 66.59 33.9979 67.3819 33.9979 68.1738V68.9657H15.4678C15.5733 67.9626 15.7845 67.0124 16.1541 66.2733Z" fill="#02284A"/>
<path id="Vector_4" d="M65.1988 70.2856C64.0902 69.8632 62.7704 69.5993 61.345 69.4409C59.9724 69.2825 58.4942 69.2297 57.0688 69.2297H52.8454C51.5256 69.2297 50.3114 69.1241 49.3083 68.913C48.3053 68.7018 47.5134 68.385 46.9327 67.9627C46.4576 67.5932 46.1936 67.0652 46.1936 66.3789C46.1936 65.6398 46.4048 65.0591 46.8271 64.584C47.3022 64.0561 47.9357 63.6337 48.6748 63.317C49.4667 63.0002 50.4698 62.7363 51.5256 62.5779C52.6343 62.4195 53.7429 62.3667 54.9043 62.3667C57.1744 62.3667 59.2861 62.5779 61.1338 63.053C62.9288 63.4754 64.5653 64.1089 66.0435 64.848C66.2019 64.9535 66.3603 65.0063 66.5714 65.0063C66.8354 65.0063 67.2049 64.9007 67.5745 64.4784C67.7857 64.1617 67.944 63.8449 67.944 63.4226C67.944 63.3698 67.944 63.3698 67.944 63.317C67.8912 63.1058 67.8385 62.8946 67.7857 62.6835C67.6801 62.4195 67.4689 62.2083 67.1522 62.05C65.41 61.0997 63.4567 60.4134 61.4506 60.0438C59.4445 59.6743 57.2272 59.4631 54.9043 59.4631C53.4789 59.4631 52.0535 59.5687 50.6809 59.7271C49.2555 59.9383 47.9885 60.255 46.8799 60.7829C45.7185 61.3109 44.7682 61.9972 44.0291 62.8946C43.29 63.7921 42.8677 65.0063 42.8677 66.4317C42.8677 67.8043 43.2372 68.9658 44.0291 69.7576C44.7682 70.5495 45.7185 71.1302 46.8799 71.5526C47.9885 71.9221 49.3083 72.1861 50.7337 72.3445C52.1063 72.4501 53.5845 72.5028 55.0099 72.5028H59.2333C60.5531 72.5028 61.7673 72.6084 62.7704 72.8724C63.7734 73.0836 64.5653 73.4531 65.1461 73.9282C65.6212 74.3506 65.8851 74.8785 65.8851 75.6176C65.8851 76.3039 65.674 76.8318 65.2516 77.2542C64.7765 77.7293 64.0902 78.1516 63.2455 78.4684C62.3481 78.7851 61.2922 78.9963 60.1308 79.1547C58.9165 79.3131 57.7023 79.3659 56.3825 79.3659H53.1622C52.1591 79.3659 51.2089 79.2603 50.3114 79.1019C49.4139 78.9435 48.5165 78.6796 47.7246 78.3628C46.9327 78.046 46.1936 77.6237 45.5073 77.1486C45.3489 77.043 45.1377 76.8846 44.7682 76.8846C44.3987 76.8846 44.0291 77.043 43.7651 77.4125C43.554 77.7293 43.4484 78.046 43.4484 78.4156C43.4484 78.7323 43.554 79.2075 44.0819 79.6298C44.8738 80.3161 45.824 80.844 46.9327 81.2136C47.9885 81.5831 49.0972 81.8471 50.2058 82.0583C51.3145 82.2166 52.4759 82.3222 53.5845 82.3222H56.6465C58.2302 82.3222 59.7612 82.2166 61.2394 82.0055C62.7176 81.7943 64.0902 81.4248 65.2516 80.9496C66.4659 80.4745 67.4161 79.7882 68.1552 78.9435C68.9471 78.046 69.3166 76.9902 69.3166 75.6704C69.3166 74.245 68.9471 73.1364 68.1552 72.2917C67.3105 71.3414 66.3603 70.7079 65.1988 70.2856Z" fill="#02284A"/>
<path id="Vector_5" d="M80.4555 64.32C81.3002 63.6337 82.356 63.1058 83.6758 62.7891C85.0484 62.4723 86.7378 62.3139 88.6911 62.3139C89.483 62.3139 90.3277 62.3667 91.1723 62.4723C92.017 62.5779 92.8617 62.7363 93.6008 62.9474C94.3399 63.1058 95.079 63.317 95.7125 63.5809C96.346 63.7921 96.8739 64.0033 97.2435 64.2144C97.2963 64.2144 97.2963 64.2144 97.3491 64.2672C97.6658 64.3728 97.9298 64.4256 98.0881 64.4256C98.6161 64.4256 98.9328 64.2144 99.0912 64.0561C99.3552 63.7921 99.4608 63.4753 99.4608 63.1058C99.4608 62.8418 99.408 62.5779 99.2496 62.3139C99.0912 62.05 98.88 61.8388 98.5633 61.6804C96.9795 60.8357 95.2902 60.255 93.6008 59.9383C91.9114 59.6215 90.2749 59.4631 88.6911 59.4631C86.5266 59.4631 84.5733 59.6215 82.8839 59.9911C81.1418 60.3606 79.6636 60.9941 78.4494 61.8916C77.2352 62.789 76.2849 64.0033 75.5986 65.4815C74.9651 66.9596 74.6483 68.8074 74.6483 70.9719C74.6483 73.1891 75.0179 75.0369 75.7042 76.4623C76.3905 77.9405 77.3935 79.1019 78.6606 79.9994C79.8748 80.844 81.4058 81.4775 83.0951 81.7943C84.7845 82.111 86.6322 82.2694 88.6911 82.2694C90.2749 82.2694 91.9114 82.111 93.6008 81.7943C95.2902 81.4775 96.9795 80.8968 98.6161 80.0521C98.9328 79.8938 99.144 79.6826 99.3024 79.4186C99.4608 79.1547 99.5135 78.8907 99.5135 78.6268C99.5135 78.2572 99.3552 77.9405 99.144 77.6765C98.9856 77.5181 98.6689 77.2542 98.1409 77.2542C97.9826 77.2542 97.7186 77.3069 97.4018 77.4125C97.3491 77.4125 97.3491 77.4125 97.2963 77.4653C96.8739 77.6765 96.3988 77.8877 95.7653 78.0988C95.1318 78.31 94.3927 78.5212 93.6536 78.7323C92.8617 78.8907 92.0698 79.0491 91.2251 79.2075C90.3805 79.3131 89.5358 79.3658 88.7439 79.3658C86.8962 79.3658 85.3124 79.2075 83.9398 78.8907C82.62 78.574 81.5113 78.0988 80.6667 77.4125C79.822 76.779 79.1885 75.9343 78.7661 74.8785C78.3438 73.8226 78.1326 72.45 78.1326 70.9191C78.1326 69.3881 78.3438 68.0155 78.7134 66.9068C79.0301 65.851 79.6636 65.0063 80.4555 64.32Z" fill="#02284A"/>
<path id="Vector_6" d="M122.847 60.0967C122.583 60.0439 122.32 59.9383 122.056 59.8856C121.792 59.8328 121.475 59.7272 121.052 59.6744C120.683 59.6216 120.261 59.5688 119.733 59.516C118.677 59.4104 117.304 59.4104 115.509 59.6216C114.559 59.78 113.609 60.0439 112.711 60.4135C111.814 60.8358 110.916 61.4165 110.177 62.1028C110.072 62.2084 109.913 62.3668 109.808 62.5252V62.1556C109.808 61.6277 109.755 61.2054 109.597 60.8358C109.491 60.5191 109.121 59.9911 108.224 59.9911C107.274 59.9911 106.851 60.4135 106.693 60.783C106.535 61.1526 106.429 61.6277 106.429 62.1556V79.4715C106.429 79.7355 106.429 79.9994 106.482 80.2106C106.482 80.4746 106.587 80.7913 106.64 81.0025C106.746 81.3193 106.957 81.5304 107.221 81.7416C107.485 81.9528 107.802 82.0055 108.171 82.0055C108.91 82.0055 109.438 81.636 109.649 80.9497C109.808 80.4746 109.861 79.9994 109.861 79.4715V67.1181C110.124 66.379 110.494 65.6927 110.969 65.112C111.497 64.5313 112.078 64.0034 112.764 63.6338C113.45 63.2643 114.295 62.9475 115.14 62.7363C116.037 62.5252 116.987 62.4196 117.991 62.4196C118.677 62.4196 119.363 62.4724 119.944 62.578C120.525 62.6835 121.158 62.8419 121.897 63.0531H121.95C122.056 63.1059 122.214 63.1059 122.32 63.1059C122.953 63.1059 123.323 62.7891 123.481 62.578C123.745 62.2612 123.85 61.8917 123.85 61.5221C123.85 61.2054 123.798 60.9414 123.639 60.6774C123.481 60.4135 123.217 60.2023 122.847 60.0967Z" fill="#02284A"/>
<path id="Vector_7" d="M151.039 62.1027C149.878 61.1524 148.453 60.4661 146.711 60.0438C145.021 59.6215 143.015 59.4103 140.692 59.4103C138.422 59.4103 136.363 59.6215 134.674 60.0438C132.932 60.4661 131.506 61.1524 130.345 62.1027C129.183 63.053 128.286 64.2672 127.758 65.7454C127.23 67.1708 126.913 68.9129 126.913 70.919C126.913 72.6612 127.177 74.2449 127.652 75.6175C128.128 77.0429 128.972 78.2571 130.081 79.2602C131.19 80.2633 132.615 81.0024 134.357 81.5303C136.099 82.0582 138.211 82.3222 140.692 82.3222C143.173 82.3222 145.285 82.0582 147.027 81.5303C148.769 81.0024 150.248 80.2633 151.303 79.2602C152.412 78.2571 153.204 77.0429 153.732 75.6175C154.207 74.2449 154.471 72.6612 154.471 70.919C154.471 68.9129 154.207 67.2235 153.626 65.7454C153.098 64.32 152.201 63.053 151.039 62.1027ZM151.092 70.919C151.092 71.6053 151.039 72.3444 150.934 73.0307C150.828 73.717 150.67 74.3505 150.406 74.984C150.142 75.6175 149.772 76.1455 149.35 76.6734C148.928 77.2013 148.294 77.6236 147.555 78.046C146.816 78.4683 145.866 78.7851 144.757 78.9962C143.649 79.2074 142.276 79.3658 140.745 79.3658C139.214 79.3658 137.841 79.2602 136.733 78.9962C135.624 78.7851 134.674 78.4683 133.935 78.046C133.196 77.6764 132.562 77.2013 132.14 76.6734C131.665 76.1455 131.348 75.5647 131.084 74.984C130.82 74.3505 130.662 73.717 130.556 73.0307C130.45 72.3444 130.398 71.6053 130.398 70.919C130.398 69.3352 130.609 67.9626 130.978 66.854C131.348 65.7982 131.981 64.9535 132.773 64.2672C133.565 63.5809 134.674 63.1057 135.941 62.789C137.261 62.4722 138.897 62.3139 140.745 62.3139C142.593 62.3139 144.229 62.4722 145.549 62.789C146.816 63.1057 147.925 63.5809 148.717 64.2672C149.508 64.9535 150.089 65.7982 150.512 66.854C150.881 67.9626 151.092 69.3352 151.092 70.919Z" fill="#02284A"/>
<path id="Vector_8" d="M189.472 60.4661C188.839 59.8326 187.941 59.7798 187.202 60.3077C186.885 60.5717 186.621 60.9412 186.463 61.4692L181.5 76.8317L176.538 61.8387C176.327 61.2052 176.01 60.7301 175.64 60.4133C175.218 60.0965 174.743 59.8854 174.268 59.8854C173.529 59.8854 172.579 60.2021 172.051 61.7859L167.088 76.7789L162.073 61.4164C161.862 60.8884 161.65 60.5189 161.334 60.2549C160.595 59.727 159.697 59.7798 159.064 60.4133C158.694 60.7828 158.536 61.2052 158.536 61.7859C158.536 62.1554 158.589 62.4194 158.694 62.6306L164.924 80.1576C165.452 81.7414 166.402 82.0582 167.035 82.0582C167.458 82.0582 167.88 81.8998 168.25 81.5302C168.566 81.2135 168.83 80.7911 169.094 80.1576L174.268 65.0062L179.442 80.1576C179.653 80.7911 179.917 81.2135 180.233 81.5302C180.603 81.847 181.025 82.0582 181.5 82.0582C181.976 82.0582 182.398 81.8998 182.767 81.5302C183.137 81.2135 183.401 80.7383 183.612 80.1576L189.842 62.6306C189.947 62.4194 190 62.1027 190 61.7859C190 61.3108 189.789 60.8356 189.472 60.4661Z" fill="#02284A"/>
<path id="Vector_9" d="M129.701 13.3754C127.695 7.88495 123.366 3.55598 117.77 1.49708C110.432 -1.19533 102.83 -0.192273 96.8115 4.24228L96.2308 4.66462L95.914 4.45345C89.8957 -0.192274 82.1352 -1.24812 74.7443 1.49708C69.2011 3.55598 64.8722 7.83216 62.8133 13.3226C60.1736 20.3967 60.9655 27.8933 65.0833 33.806C69.1483 39.6659 75.7474 43.1502 82.8215 43.1502C87.9424 43.1502 91.849 41.8304 95.914 38.7157C96.0196 38.6629 96.1252 38.6101 96.178 38.6101C96.3892 38.6101 96.5476 38.7685 96.8643 38.9269C100.824 41.7248 105.1 43.1502 109.587 43.1502C116.82 43.1502 123.313 39.8771 127.325 34.1228C131.496 28.21 132.341 20.6607 129.701 13.3754ZM123.841 26.0455C122.469 30.744 118.668 34.4395 113.969 35.8121C109.957 36.9207 105.839 36.4456 102.355 34.4395C102.091 34.2811 101.932 34.07 101.932 33.7532C101.88 33.4364 101.985 33.1725 102.249 32.9613L110.168 25.7288C110.485 25.412 111.013 25.412 111.329 25.676C112.438 26.5207 113.124 26.8374 113.388 26.8374L115.553 17.546C115.606 17.2292 115.553 16.9124 115.342 16.7013C115.13 16.4373 114.814 16.3317 114.497 16.3845L104.994 17.4404C104.942 17.4404 104.836 17.4404 104.783 17.4932C104.783 17.8099 105.311 18.9186 105.997 19.8688L106.261 20.2384L91.2683 33.806C88.7343 35.5481 85.8835 36.4456 82.8743 36.4456C81.5017 36.4456 80.1819 36.2872 78.8093 35.9177C73.9524 34.5979 70.0986 30.8496 68.6732 26.0983C67.3006 21.3998 68.0925 16.5429 70.9433 12.7418C73.7413 8.99359 78.1758 6.77632 82.8215 6.77632C85.4084 6.77632 87.9424 7.46262 90.1597 8.72963C90.4236 8.88801 90.582 9.09918 90.6348 9.41593C90.6876 9.73269 90.582 9.99665 90.3181 10.2078L82.0825 17.7043C81.7657 18.0211 81.2906 18.0211 80.921 17.7571C79.8124 16.9124 79.1261 16.6485 78.9149 16.6485L76.7504 25.9399C76.6976 26.2567 76.7504 26.5734 76.9616 26.7846C77.1728 27.0486 77.4895 27.1542 77.8063 27.1014L87.3089 26.0455C87.4673 26.0455 87.5729 25.9927 87.6784 25.8871C87.6784 25.676 87.4145 25.0953 86.4642 23.9338C86.1475 23.5643 86.2003 23.0364 86.5698 22.6668L100.929 9.52152C100.982 9.46872 100.982 9.46872 101.035 9.46872C103.569 7.67378 106.525 6.67073 109.64 6.67073C114.286 6.67073 118.72 8.88801 121.518 12.6363C124.369 16.4901 125.214 21.3998 123.841 26.0455Z" fill="url(#paint0_linear_3630_1613)"/>
</g>
<defs>
<linearGradient id="paint0_linear_3630_1613" x1="81.4977" y1="2.11993" x2="120.911" y2="40.3879" gradientUnits="userSpaceOnUse">
<stop stop-color="#13E6C0"/>
<stop offset="0.509176" stop-color="#5D98F0"/>
<stop offset="1" stop-color="#E020F1"/>
</linearGradient>
</defs>
</svg>
