<svg xmlns="http://www.w3.org/2000/svg" width="244" height="108" viewBox="0 0 244 108" fill="none">
  <g filter="url(#filter0_d_1219_1070)">
    <path d="M5.00083 80.1794C5.80106 80.1794 6.53459 79.9127 7.13476 79.3792C7.73493 78.8457 8.06835 78.0455 8.06835 77.1786C8.06835 76.3117 7.73493 75.5782 7.13476 74.978C6.53459 74.3778 5.80106 74.1111 5.00083 74.1111C4.13393 74.1111 3.40039 74.4445 2.86691 75.0447C2.33343 75.6448 2 76.3784 2 77.2453C2 78.1122 2.33343 78.8457 2.86691 79.4459C3.46707 79.9127 4.20061 80.1794 5.00083 80.1794Z" fill="#30C2E2"/>
    <path d="M5.0678 84.4473C3.46735 84.4473 2.93387 85.4475 2.73382 85.8476C2.53376 86.3811 2.40039 87.048 2.40039 87.7815V100.585C2.40039 101.385 2.46708 102.052 2.66713 102.586C2.8005 102.986 3.33398 103.986 4.93443 103.986C5.5346 103.986 6.00139 103.853 6.33482 103.653C6.73493 103.386 7.00167 103.052 7.20173 102.586C7.3351 102.252 7.40178 101.919 7.46847 101.519C7.46847 101.252 7.53515 100.919 7.53515 100.585V87.7148C7.53515 87.048 7.46847 86.4478 7.26841 85.9143C7.13504 85.5142 6.60156 84.4473 5.0678 84.4473Z" fill="#30C2E2"/>
    <path d="M44.7456 77.9121C42.345 76.045 38.6773 75.0447 33.876 75.0447C31.6087 75.0447 29.408 75.2447 27.4075 75.7115C25.3403 76.1783 23.5398 76.9786 22.0727 78.1122C20.5389 79.2458 19.3386 80.7796 18.405 82.6468C17.5381 84.514 17.0713 86.848 17.0713 89.5821C17.0713 91.6493 17.338 93.5832 17.8715 95.317C18.405 97.1175 19.3386 98.6512 20.5389 99.9183C21.7393 101.185 23.3397 102.186 25.2736 102.919C27.1408 103.586 29.4747 103.986 32.1421 103.986C34.6762 103.986 36.8768 103.786 38.6773 103.453C40.4778 103.119 42.0782 102.719 43.3453 102.252C44.6123 101.785 45.6126 101.319 46.3461 100.852C47.213 100.318 47.5464 99.9849 47.7465 99.8516C48.1466 99.5181 48.3466 99.118 48.3466 98.5846C48.3466 98.1178 48.1466 97.651 47.8132 97.2508C47.3464 96.7174 46.8796 96.6507 46.5461 96.6507C46.4128 96.6507 46.2794 96.6507 46.0127 96.7841C45.946 96.7841 45.8793 96.8507 45.8126 96.8507C45.4125 97.1175 44.879 97.4509 44.2122 97.851C43.5453 98.2511 42.6784 98.5846 41.5448 98.9847C40.4778 99.3848 39.1441 99.6515 37.6103 99.9183C36.0766 100.185 34.2761 100.318 32.2088 100.318C30.4083 100.318 28.8079 100.118 27.4742 99.7182C26.2072 99.3181 25.0735 98.7179 24.2066 97.9177C23.3397 97.1175 22.6728 96.0505 22.206 94.7168C21.8059 93.5832 21.5392 92.1161 21.4725 90.5156H46.9463C47.4131 90.5156 47.7465 90.2489 47.9465 89.6487C48.0799 89.382 48.1466 89.0486 48.28 88.6485C48.3466 88.2484 48.4133 87.8482 48.48 87.4481C48.5467 87.048 48.5467 86.6479 48.5467 86.3145C48.5467 82.6468 47.2797 79.846 44.7456 77.9121ZM22.4061 83.7138C22.9396 82.5801 23.7398 81.6465 24.7401 80.913C25.7404 80.1794 27.0741 79.646 28.5411 79.3125C30.0749 78.9791 31.8754 78.7791 33.876 78.7791C36.0099 78.7791 37.8104 78.9791 39.2108 79.3792C40.6112 79.7793 41.7448 80.3128 42.6117 80.9797C43.4119 81.6465 44.0121 82.4467 44.4122 83.247C44.7456 84.1139 44.9457 85.1141 44.9457 86.1144V87.1147H21.5392C21.6726 85.8477 21.9393 84.6473 22.4061 83.7138Z" fill="#F3F3F3"/>
    <path d="M84.3563 88.7818C82.9559 88.2483 81.2888 87.9149 79.4883 87.7148C77.7544 87.5148 75.8873 87.4481 74.0868 87.4481H68.7519C67.0848 87.4481 65.551 87.3147 64.284 87.048C63.017 86.7812 62.0167 86.3811 61.2832 85.8476C60.683 85.3808 60.3496 84.714 60.3496 83.8471C60.3496 82.9135 60.6163 82.18 61.1498 81.5798C61.75 80.9129 62.5502 80.3795 63.4838 79.9794C64.4841 79.5792 65.7511 79.2458 67.0848 79.0458C68.4852 78.8457 69.8856 78.779 71.3527 78.779C74.2201 78.779 76.8875 79.0458 79.2215 79.6459C81.4888 80.1794 83.5561 80.9796 85.4232 81.9132C85.6233 82.0466 85.8234 82.1133 86.0901 82.1133C86.4235 82.1133 86.8903 81.9799 87.3571 81.4464C87.6238 81.0463 87.8239 80.6462 87.8239 80.1127C87.8239 80.046 87.8239 80.046 87.8239 79.9794C87.7572 79.7126 87.6905 79.4459 87.6239 79.1791C87.4905 78.8457 87.2237 78.579 86.8236 78.3789C84.623 77.1786 82.1557 76.3117 79.6216 75.8449C77.0876 75.3781 74.2868 75.1113 71.3527 75.1113C69.5522 75.1113 67.7517 75.2447 66.0178 75.4448C64.2173 75.7115 62.6169 76.1116 61.2165 76.7785C59.7494 77.4453 58.5491 78.3122 57.6155 79.4459C56.6819 80.5795 56.1484 82.1133 56.1484 83.9138C56.1484 85.6476 56.6152 87.1147 57.6155 88.1149C58.5491 89.1152 59.7494 89.8488 61.2165 90.3822C62.6169 90.849 64.284 91.1825 66.0845 91.3825C67.8183 91.5159 69.6855 91.5826 71.486 91.5826H76.8209C78.488 91.5826 80.0217 91.7159 81.2888 92.0494C82.5558 92.3161 83.5561 92.7829 84.2896 93.3831C84.8898 93.9166 85.2232 94.5834 85.2232 95.517C85.2232 96.3839 84.9564 97.0508 84.423 97.5842C83.8228 98.1844 82.9559 98.7179 81.8889 99.118C80.7553 99.5181 79.4216 99.7849 77.9545 99.9849C76.4207 100.185 74.887 100.252 73.2198 100.252H69.1521C67.885 100.252 66.6847 100.118 65.551 99.9182C64.4174 99.7182 63.2838 99.3847 62.2835 98.9846C61.2832 98.5845 60.3496 98.051 59.4827 97.4509C59.2826 97.3175 59.0159 97.1174 58.5491 97.1174C58.0823 97.1174 57.6155 97.3175 57.2821 97.7843C57.0153 98.1844 56.882 98.5845 56.882 99.0513C56.882 99.4514 57.0153 100.052 57.6822 100.585C58.6825 101.452 59.8828 102.119 61.2832 102.586C62.6169 103.052 64.0173 103.386 65.4177 103.653C66.8181 103.853 68.2851 103.986 69.6855 103.986H73.5533C75.5538 103.986 77.4877 103.853 79.3549 103.586C81.2221 103.319 82.9559 102.852 84.423 102.252C85.9567 101.652 87.1571 100.785 88.0906 99.7182C89.0909 98.5845 89.5577 97.2508 89.5577 95.5837C89.5577 93.7832 89.0909 92.3828 88.0906 91.3158C87.0237 90.1155 85.8233 89.3153 84.3563 88.7818Z" fill="#F3F3F3"/>
    <path d="M103.628 81.2464C104.695 80.3795 106.029 79.7126 107.696 79.3125C109.43 78.9124 111.564 78.7123 114.031 78.7123C115.032 78.7123 116.098 78.779 117.165 78.9124C118.232 79.0458 119.299 79.2458 120.233 79.5125C121.167 79.7126 122.1 79.9793 122.9 80.3128C123.701 80.5795 124.367 80.8463 124.834 81.113C124.901 81.113 124.901 81.113 124.968 81.1797C125.368 81.313 125.701 81.3797 125.901 81.3797C126.568 81.3797 126.968 81.113 127.168 80.9129C127.502 80.5795 127.635 80.1794 127.635 79.7126C127.635 79.3792 127.568 79.0458 127.368 78.7123C127.168 78.3789 126.901 78.1122 126.501 77.9121C124.501 76.8451 122.367 76.1116 120.233 75.7115C118.099 75.3114 116.032 75.1113 114.031 75.1113C111.297 75.1113 108.83 75.3114 106.696 75.7782C104.495 76.245 102.628 77.0452 101.094 78.1788C99.5605 79.3125 98.3602 80.8463 97.4933 82.7134C96.6931 84.5806 96.293 86.9146 96.293 89.6487C96.293 92.4495 96.7598 94.7835 97.6267 96.584C98.4936 98.4511 99.7606 99.9182 101.361 101.052C102.895 102.119 104.829 102.919 106.963 103.319C109.097 103.719 111.431 103.919 114.031 103.919C116.032 103.919 118.099 103.719 120.233 103.319C122.367 102.919 124.501 102.186 126.568 101.119C126.968 100.918 127.235 100.652 127.435 100.318C127.635 99.9849 127.702 99.6515 127.702 99.3181C127.702 98.8513 127.502 98.4511 127.235 98.1177C127.035 97.9177 126.635 97.5842 125.968 97.5842C125.768 97.5842 125.434 97.6509 125.034 97.7843C124.968 97.7843 124.968 97.7843 124.901 97.851C124.367 98.1177 123.767 98.3845 122.967 98.6512C122.167 98.9179 121.233 99.1847 120.3 99.4514C119.299 99.6515 118.299 99.8515 117.232 100.052C116.165 100.185 115.098 100.252 114.098 100.252C111.764 100.252 109.763 100.052 108.03 99.6515C106.362 99.2514 104.962 98.6512 103.895 97.7843C102.828 96.9841 102.028 95.9171 101.494 94.5834C100.961 93.2497 100.694 91.5159 100.694 89.582C100.694 87.6481 100.961 85.9143 101.428 84.5139C101.828 83.1802 102.628 82.1133 103.628 81.2464Z" fill="#F3F3F3"/>
    <path d="M157.177 75.9117C156.843 75.845 156.51 75.7117 156.176 75.645C155.843 75.5783 155.443 75.4449 154.909 75.3782C154.443 75.3115 153.909 75.2449 153.242 75.1782C151.908 75.0448 150.175 75.0448 147.907 75.3116C146.707 75.5116 145.507 75.845 144.373 76.3118C143.239 76.8453 142.106 77.5788 141.172 78.4458C141.039 78.5791 140.839 78.7792 140.705 78.9792V78.5124C140.705 77.8456 140.639 77.3121 140.439 76.8453C140.305 76.4452 139.838 75.7783 138.705 75.7783C137.504 75.7783 136.971 76.3118 136.771 76.7786C136.571 77.2454 136.438 77.8456 136.438 78.5124V100.385C136.438 100.719 136.437 101.052 136.504 101.319C136.504 101.652 136.638 102.052 136.704 102.319C136.838 102.719 137.104 102.986 137.438 103.253C137.771 103.519 138.171 103.586 138.638 103.586C139.572 103.586 140.239 103.119 140.505 102.252C140.705 101.652 140.772 101.052 140.772 100.385V84.7809C141.105 83.8473 141.572 82.9803 142.172 82.2468C142.839 81.5133 143.573 80.8464 144.44 80.3796C145.307 79.9128 146.374 79.5127 147.441 79.246C148.574 78.9792 149.775 78.8459 151.042 78.8459C151.908 78.8459 152.775 78.9125 153.509 79.0459C154.242 79.1793 155.043 79.3794 155.976 79.6461H156.043C156.176 79.7128 156.376 79.7128 156.51 79.7128C157.31 79.7128 157.777 79.3127 157.977 79.0459C158.31 78.6458 158.444 78.179 158.444 77.7122C158.444 77.3121 158.377 76.9787 158.177 76.6453C157.977 76.3118 157.643 76.0451 157.177 75.9117Z" fill="#F3F3F3"/>
    <path d="M192.787 78.4456C191.32 77.2453 189.519 76.3784 187.318 75.8449C185.185 75.3114 182.651 75.0447 179.716 75.0447C176.849 75.0447 174.248 75.3114 172.114 75.8449C169.914 76.3784 168.113 77.2453 166.646 78.4456C165.179 79.646 164.045 81.1797 163.378 83.0469C162.712 84.8474 162.312 87.048 162.312 89.5821C162.312 91.7827 162.645 93.7832 163.245 95.517C163.845 97.3175 164.912 98.8513 166.313 100.118C167.713 101.385 169.514 102.319 171.714 102.986C173.915 103.653 176.582 103.986 179.716 103.986C182.851 103.986 185.518 103.653 187.719 102.986C189.919 102.319 191.786 101.385 193.12 100.118C194.52 98.8513 195.521 97.3175 196.188 95.517C196.788 93.7832 197.121 91.7827 197.121 89.5821C197.121 87.048 196.788 84.9141 196.054 83.0469C195.387 81.2464 194.254 79.646 192.787 78.4456ZM192.853 89.5821C192.853 90.449 192.787 91.3826 192.653 92.2495C192.52 93.1164 192.32 93.9166 191.986 94.7168C191.653 95.517 191.186 96.1839 190.653 96.8507C190.119 97.5176 189.319 98.0511 188.385 98.5846C187.452 99.118 186.252 99.5181 184.851 99.7849C183.451 100.052 181.717 100.252 179.783 100.252C177.849 100.252 176.115 100.118 174.715 99.7849C173.315 99.5181 172.114 99.118 171.181 98.5846C170.247 98.1178 169.447 97.5176 168.913 96.8507C168.313 96.1839 167.913 95.4503 167.58 94.7168C167.246 93.9166 167.046 93.1164 166.913 92.2495C166.779 91.3826 166.713 90.449 166.713 89.5821C166.713 87.5815 166.979 85.8477 167.446 84.4473C167.913 83.1136 168.713 82.0466 169.714 81.1797C170.714 80.3128 172.114 79.7126 173.715 79.3125C175.382 78.9124 177.449 78.7124 179.783 78.7124C182.117 78.7124 184.184 78.9124 185.851 79.3125C187.452 79.7126 188.852 80.3128 189.853 81.1797C190.853 82.0466 191.586 83.1136 192.12 84.4473C192.587 85.8477 192.853 87.5815 192.853 89.5821Z" fill="#F3F3F3"/>
    <path d="M241.333 76.3786C240.533 75.5783 239.4 75.5117 238.466 76.1785C238.066 76.5119 237.732 76.9787 237.532 77.6456L231.264 97.051L224.996 78.1124C224.729 77.3122 224.329 76.712 223.862 76.3119C223.328 75.9118 222.728 75.645 222.128 75.645C221.194 75.645 219.994 76.0451 219.327 78.0457L213.059 96.9843L206.724 77.5789C206.457 76.912 206.19 76.4452 205.79 76.1118C204.857 75.445 203.723 75.5117 202.923 76.3119C202.456 76.7787 202.256 77.3121 202.256 78.0457C202.256 78.5125 202.323 78.8459 202.456 79.1127L210.325 101.252C210.992 103.253 212.192 103.653 212.992 103.653C213.526 103.653 214.059 103.453 214.526 102.986C214.926 102.586 215.259 102.052 215.593 101.252L222.128 82.1135L228.663 101.252C228.93 102.052 229.263 102.586 229.663 102.986C230.13 103.386 230.664 103.653 231.264 103.653C231.864 103.653 232.398 103.453 232.864 102.986C233.331 102.586 233.665 101.986 233.931 101.252L241.8 79.1127C241.934 78.8459 242 78.4458 242 78.0457C242 77.4455 241.734 76.8454 241.333 76.3786Z" fill="#F3F3F3"/>
    <path d="M165.834 16.8952C163.3 9.95996 157.832 4.49178 150.764 1.89105C141.494 -1.50989 131.892 -0.242872 124.29 5.35868L123.556 5.89217L123.156 5.62542C115.554 -0.242873 105.751 -1.57658 96.4152 1.89105C89.4133 4.49178 83.9451 9.89328 81.3444 16.8285C78.0101 25.7644 79.0104 35.2337 84.2118 42.7024C89.3466 50.1045 97.6822 54.5057 106.618 54.5057C113.087 54.5057 118.021 52.8385 123.156 48.9041C123.289 48.8374 123.423 48.7708 123.489 48.7708C123.756 48.7708 123.956 48.9708 124.356 49.1709C129.358 52.7052 134.759 54.5057 140.427 54.5057C149.563 54.5057 157.766 50.3712 162.834 43.1025C168.102 35.6338 169.169 26.0978 165.834 16.8952ZM158.432 32.8997C156.699 38.8347 151.897 43.5026 145.962 45.2364C140.894 46.6368 135.693 46.0367 131.292 43.5026C130.958 43.3026 130.758 43.0358 130.758 42.6357C130.691 42.2356 130.825 41.9022 131.158 41.6354L141.161 32.4996C141.561 32.0994 142.228 32.0994 142.628 32.4329C144.028 33.4998 144.895 33.8999 145.229 33.8999L147.963 22.1634C148.03 21.7632 147.963 21.3631 147.696 21.0964C147.429 20.763 147.029 20.6296 146.629 20.6963L134.626 22.03C134.559 22.03 134.426 22.03 134.359 22.0967C134.359 22.4968 135.026 23.8972 135.893 25.0975L136.226 25.5643L117.288 42.7024C114.087 44.903 110.486 46.0367 106.685 46.0367C104.951 46.0367 103.284 45.8366 101.55 45.3698C95.4149 43.7027 90.5469 38.968 88.7464 32.9664C87.0126 27.0314 88.0129 20.8963 91.6139 16.095C95.1482 11.3604 100.75 8.55957 106.618 8.55957C109.886 8.55957 113.086 9.42648 115.887 11.0269C116.221 11.227 116.421 11.4937 116.487 11.8938C116.554 12.2939 116.421 12.6274 116.087 12.8941L105.684 22.3634C105.284 22.7635 104.684 22.7635 104.217 22.4301C102.817 21.3631 101.95 21.0297 101.683 21.0297L98.9492 32.7663C98.8826 33.1664 98.9492 33.5665 99.216 33.8333C99.4827 34.1667 99.8828 34.3001 100.283 34.2334L112.286 32.8997C112.486 32.8997 112.62 32.833 112.753 32.6996C112.753 32.4329 112.42 31.6993 111.219 30.2323C110.819 29.7655 110.886 29.0986 111.353 28.6318L129.491 12.0272C129.558 11.9605 129.558 11.9605 129.624 11.9605C132.825 9.69322 136.56 8.4262 140.494 8.4262C146.362 8.4262 151.964 11.227 155.498 15.9616C159.099 20.8296 160.166 27.0314 158.432 32.8997Z" fill="url(#paint0_linear_1219_1070)"/>
  </g>
  <defs>
    <filter id="filter0_d_1219_1070" x="0" y="0" width="244" height="107.986" filterUnits="userSpaceOnUse" color-interpolation-filters="sRGB">
      <feFlood flood-opacity="0" result="BackgroundImageFix"/>
      <feColorMatrix in="SourceAlpha" type="matrix" values="0 0 0 0 0 0 0 0 0 0 0 0 0 0 0 0 0 0 127 0" result="hardAlpha"/>
      <feOffset dy="2"/>
      <feGaussianBlur stdDeviation="1"/>
      <feComposite in2="hardAlpha" operator="out"/>
      <feColorMatrix type="matrix" values="0 0 0 0 0 0 0 0 0 0 0 0 0 0 0 0 0 0 0.2 0"/>
      <feBlend mode="normal" in2="BackgroundImageFix" result="effect1_dropShadow_1219_1070"/>
      <feBlend mode="normal" in="SourceGraphic" in2="effect1_dropShadow_1219_1070" result="shape"/>
    </filter>
    <linearGradient id="paint0_linear_1219_1070" x1="104.946" y1="2.67781" x2="154.732" y2="51.0163" gradientUnits="userSpaceOnUse">
      <stop stop-color="#13E6C0"/>
      <stop offset="0.509176" stop-color="#5D98F0"/>
      <stop offset="1" stop-color="#E020F1"/>
    </linearGradient>
  </defs>
</svg>