<svg xmlns="http://www.w3.org/2000/svg" width="52" height="52" viewBox="0 0 52 52" fill="none">
  <g filter="url(#filter0_d_4254_1003)">
    <path d="M38.9529 38.9532C46.1068 31.7994 46.1068 20.2006 38.9529 13.0468C31.7991 5.8929 20.2004 5.8929 13.0465 13.0468C5.89262 20.2006 5.89262 31.7994 13.0465 38.9532C20.2004 46.1071 31.7991 46.1071 38.9529 38.9532Z" fill="url(#paint0_linear_4254_1003)"/>
    <path fill-rule="evenodd" clip-rule="evenodd" d="M14.0937 37.9066C7.51795 31.3309 7.51795 20.6695 14.0937 14.0937C20.6695 7.51795 31.3309 7.51795 37.9066 14.0937C44.4824 20.6695 44.4824 31.3309 37.9066 37.9066C31.3309 44.4824 20.6695 44.4824 14.0937 37.9066ZM12.0002 12.0002C4.26817 19.7321 4.26817 32.2682 12.0002 40.0002C19.7321 47.7321 32.2682 47.7322 40.0002 40.0002C47.7321 32.2682 47.7321 19.7321 40.0002 12.0002C32.2682 4.26817 19.7321 4.26818 12.0002 12.0002ZM25.9986 16.7472C26.8161 16.7472 27.4789 17.41 27.4789 18.2276V24.5192H33.7705C34.5881 24.5192 35.2508 25.1819 35.2508 25.9995C35.2508 26.8171 34.5881 27.4799 33.7705 27.4799H27.4789V33.7715C27.4789 34.589 26.8161 35.2518 25.9986 35.2518C25.181 35.2518 24.5182 34.589 24.5182 33.7715V27.4799H18.2266C17.409 27.4799 16.7463 26.8171 16.7463 25.9995C16.7463 25.1819 17.409 24.5192 18.2266 24.5192H24.5182V18.2276C24.5182 17.41 25.181 16.7472 25.9986 16.7472Z" fill="url(#paint1_linear_4254_1003)"/>
  </g>
  <defs>
    <filter id="filter0_d_4254_1003" x="4.20117" y="6.20117" width="43.5981" height="43.5977" filterUnits="userSpaceOnUse" color-interpolation-filters="sRGB">
      <feFlood flood-opacity="0" result="BackgroundImageFix"/>
      <feColorMatrix in="SourceAlpha" type="matrix" values="0 0 0 0 0 0 0 0 0 0 0 0 0 0 0 0 0 0 127 0" result="hardAlpha"/>
      <feOffset dy="2"/>
      <feGaussianBlur stdDeviation="1"/>
      <feComposite in2="hardAlpha" operator="out"/>
      <feColorMatrix type="matrix" values="0 0 0 0 0 0 0 0 0 0 0 0 0 0 0 0 0 0 0.2 0"/>
      <feBlend mode="normal" in2="BackgroundImageFix" result="effect1_dropShadow_4254_1003"/>
      <feBlend mode="normal" in="SourceGraphic" in2="effect1_dropShadow_4254_1003" result="shape"/>
    </filter>
    <linearGradient id="paint0_linear_4254_1003" x1="25.397" y1="0.696232" x2="15.4975" y2="49.7887" gradientUnits="userSpaceOnUse">
      <stop stop-color="#171717"/>
      <stop offset="1" stop-color="#272727"/>
    </linearGradient>
    <linearGradient id="paint1_linear_4254_1003" x1="17.6478" y1="8.14658" x2="49.5543" y2="27.2634" gradientUnits="userSpaceOnUse">
      <stop stop-color="#13E6C0"/>
      <stop offset="0.509176" stop-color="#5D98F0"/>
      <stop offset="1" stop-color="#E020F1"/>
    </linearGradient>
  </defs>
</svg>