<svg xmlns="http://www.w3.org/2000/svg" width="28" height="20" viewBox="0 0 28 20" fill="none"> <path d="M2.73634 16.4638C2.58418 16.3181 2.40475 16.204 2.20835 16.1278C1.81881 15.9678 1.38189 15.9678 0.99236 16.1278C0.795961 16.204 0.616531 16.3181 0.464367 16.4638C0.318703 16.616 0.204521 16.7954 0.128371 16.9918C0.00584485 17.2832 -0.027631 17.6043 0.0321669 17.9147C0.0919648 18.2251 0.242357 18.5108 0.464367 18.7358C0.619886 18.8771 0.798467 18.9908 0.99236 19.0718C1.18388 19.1564 1.39096 19.2001 1.60035 19.2001C1.80974 19.2001 2.01683 19.1564 2.20835 19.0718C2.40224 18.9908 2.58082 18.8771 2.73634 18.7358C2.95835 18.5108 3.10874 18.2251 3.16854 17.9147C3.22834 17.6043 3.19486 17.2832 3.07234 16.9918C2.99619 16.7954 2.882 16.616 2.73634 16.4638ZM8.00028 3.19996H26.4C26.8244 3.19996 27.2313 3.03139 27.5314 2.73134C27.8314 2.43128 28 2.02432 28 1.59998C28 1.17564 27.8314 0.768679 27.5314 0.468624C27.2313 0.168569 26.8244 0 26.4 0H8.00028C7.57594 0 7.16898 0.168569 6.86892 0.468624C6.56887 0.768679 6.4003 1.17564 6.4003 1.59998C6.4003 2.02432 6.56887 2.43128 6.86892 2.73134C7.16898 3.03139 7.57594 3.19996 8.00028 3.19996ZM2.73634 8.4639C2.51134 8.24189 2.22563 8.0915 1.91525 8.0317C1.60487 7.9719 1.28373 8.00538 0.99236 8.12791C0.798467 8.20893 0.619886 8.32257 0.464367 8.4639C0.318703 8.61607 0.204521 8.7955 0.128371 8.9919C0.0437232 9.18341 0 9.3905 0 9.59989C0 9.80928 0.0437232 10.0164 0.128371 10.2079C0.209397 10.4018 0.323039 10.5804 0.464367 10.7359C0.619886 10.8772 0.798467 10.9908 0.99236 11.0719C1.18388 11.1565 1.39096 11.2002 1.60035 11.2002C1.80974 11.2002 2.01683 11.1565 2.20835 11.0719C2.40224 10.9908 2.58082 10.8772 2.73634 10.7359C2.87767 10.5804 2.99131 10.4018 3.07234 10.2079C3.15698 10.0164 3.20071 9.80928 3.20071 9.59989C3.20071 9.3905 3.15698 9.18341 3.07234 8.9919C2.99619 8.7955 2.882 8.61607 2.73634 8.4639ZM26.4 7.99991H8.00028C7.57594 7.99991 7.16898 8.16848 6.86892 8.46853C6.56887 8.76859 6.4003 9.17555 6.4003 9.59989C6.4003 10.0242 6.56887 10.4312 6.86892 10.7312C7.16898 11.0313 7.57594 11.1999 8.00028 11.1999H26.4C26.8244 11.1999 27.2313 11.0313 27.5314 10.7312C27.8314 10.4312 28 10.0242 28 9.59989C28 9.17555 27.8314 8.76859 27.5314 8.46853C27.2313 8.16848 26.8244 7.99991 26.4 7.99991ZM2.73634 0.463995C2.58418 0.318331 2.40475 0.204149 2.20835 0.127998C1.91697 0.00547273 1.59584 -0.0280028 1.28546 0.0317951C0.975076 0.091593 0.689362 0.241985 0.464367 0.463995C0.323039 0.619514 0.209397 0.798095 0.128371 0.991988C0.0437232 1.18351 0 1.39059 0 1.59998C0 1.80937 0.0437232 2.01646 0.128371 2.20797C0.209397 2.40187 0.323039 2.58045 0.464367 2.73597C0.619886 2.8773 0.798467 2.99094 0.99236 3.07196C1.28373 3.19449 1.60487 3.22797 1.91525 3.16817C2.22563 3.10837 2.51134 2.95798 2.73634 2.73597C2.87767 2.58045 2.99131 2.40187 3.07234 2.20797C3.15698 2.01646 3.20071 1.80937 3.20071 1.59998C3.20071 1.39059 3.15698 1.18351 3.07234 0.991988C2.99131 0.798095 2.87767 0.619514 2.73634 0.463995ZM26.4 15.9998H8.00028C7.57594 15.9998 7.16898 16.1684 6.86892 16.4684C6.56887 16.7685 6.4003 17.1755 6.4003 17.5998C6.4003 18.0241 6.56887 18.4311 6.86892 18.7312C7.16898 19.0312 7.57594 19.1998 8.00028 19.1998H26.4C26.8244 19.1998 27.2313 19.0312 27.5314 18.7312C27.8314 18.4311 28 18.0241 28 17.5998C28 17.1755 27.8314 16.7685 27.5314 16.4684C27.2313 16.1684 26.8244 15.9998 26.4 15.9998Z" fill="white" /></svg>