<svg xmlns="http://www.w3.org/2000/svg" width="32" height="20" viewBox="0 0 32 20" fill="none">
<path d="M31.3097 6.14039C30.3916 3.61985 28.4105 1.63249 25.8496 0.687284C22.4915 -0.548755 19.0125 -0.0882694 16.2583 1.94756L15.9926 2.14145L15.8476 2.0445C13.0935 -0.0882698 9.54203 -0.572991 6.15971 0.687284C3.62297 1.63249 1.6419 3.59561 0.699681 6.11616C-0.50829 9.36379 -0.145902 12.8053 1.73853 15.5197C3.59881 18.2099 6.61874 19.8095 9.8561 19.8095C12.1996 19.8095 13.9874 19.2036 15.8476 17.7737C15.896 17.7495 15.9443 17.7252 15.9684 17.7252C16.0651 17.7252 16.1376 17.7979 16.2825 17.8706C18.0945 19.1552 20.0514 19.8095 22.1049 19.8095C25.4148 19.8095 28.3864 18.3069 30.2225 15.6652C32.1311 12.9507 32.5176 9.48497 31.3097 6.14039ZM28.628 11.957C27.9998 14.1141 26.2603 15.8106 24.1102 16.4407C22.274 16.9497 20.3896 16.7315 18.7951 15.8106C18.6743 15.7379 18.6018 15.6409 18.6018 15.4955C18.5776 15.3501 18.626 15.2289 18.7468 15.132L22.3707 11.8116C22.5156 11.6662 22.7572 11.6662 22.9022 11.7874C23.4095 12.1752 23.7236 12.3206 23.8444 12.3206L24.8349 8.05504C24.8591 7.90963 24.8349 7.76421 24.7383 7.66726C24.6417 7.54608 24.4967 7.49761 24.3518 7.52185L20.0031 8.00657C19.9789 8.00657 19.9306 8.00657 19.9064 8.03081C19.9064 8.17622 20.148 8.68518 20.4621 9.12143L20.5829 9.29108L13.7216 15.5197C12.562 16.3195 11.2573 16.7315 9.88026 16.7315C9.25212 16.7315 8.64813 16.6588 8.01998 16.4892C5.79732 15.8833 4.03368 14.1625 3.38137 11.9813C2.75323 9.82427 3.11562 7.59456 4.42023 5.84956C5.70068 4.1288 7.73007 3.11089 9.8561 3.11089C11.0399 3.11089 12.1996 3.42596 13.2143 4.00762C13.3351 4.08033 13.4075 4.17727 13.4317 4.32269C13.4559 4.46811 13.4075 4.58929 13.2867 4.68623L9.51787 8.12775C9.37291 8.27317 9.15547 8.27317 8.98636 8.15199C8.47901 7.76421 8.16494 7.64303 8.0683 7.64303L7.07777 11.9086C7.05361 12.054 7.07776 12.1994 7.1744 12.2964C7.27104 12.4175 7.416 12.466 7.56096 12.4418L11.9096 11.957C11.9821 11.957 12.0304 11.9328 12.0788 11.8843C12.0788 11.7874 11.958 11.5208 11.5231 10.9876C11.3781 10.818 11.4023 10.5756 11.5714 10.4059L18.1428 4.37116C18.1669 4.34693 18.1669 4.34693 18.1911 4.34693C19.3508 3.5229 20.7037 3.06242 22.1291 3.06242C24.2551 3.06242 26.2845 4.08033 27.565 5.80109C28.8696 7.57032 29.2561 9.82427 28.628 11.957Z" fill="#EAE9E9"/>
</svg>