<svg width="24" height="23" viewBox="0 0 24 23" fill="none" xmlns="http://www.w3.org/2000/svg">
<g id="Group 339">
<g id="Rectangle 153" filter="url(#filter0_d_2059_804)">
<rect x="2" y="1" width="20" height="20" rx="10" fill="white"/>
</g>
<path id="Union" fill-rule="evenodd" clip-rule="evenodd" d="M6.67658 15.6824C5.57653 14.4332 4.90927 12.7936 4.90927 10.9982C4.90927 7.08202 8.08398 3.90732 12.0002 3.90732C15.9164 3.90732 19.0911 7.08202 19.0911 10.9982C19.0911 12.8169 18.4064 14.4756 17.2808 15.7308C17.1041 14.9946 16.7754 14.3007 16.3131 13.6949C15.7125 12.9079 14.9091 12.2992 13.989 11.934C14.5237 11.5133 14.9141 10.9363 15.1057 10.2834C15.2973 9.63054 15.2806 8.93416 15.058 8.29118C14.8353 7.6482 14.4179 7.09059 13.8636 6.69594C13.3093 6.30128 12.6458 6.0892 11.9654 6.0892C11.2849 6.0892 10.6214 6.30128 10.0671 6.69594C9.51285 7.09059 9.09536 7.6482 8.87274 8.29118C8.65012 8.93416 8.63345 9.63054 8.82504 10.2834C9.01663 10.9363 9.40696 11.5133 9.94172 11.934C9.02539 12.3011 8.22587 12.91 7.62838 13.6958C7.17778 14.2884 6.85483 14.9648 6.67658 15.6824ZM7.62857 16.5816C8.83309 17.526 10.3509 18.0891 12.0002 18.0891C13.6315 18.0891 15.1342 17.5383 16.3323 16.6124C16.3229 16.5811 16.3163 16.5488 16.3126 16.5158C16.1929 15.4496 15.6844 14.4648 14.8845 13.7497C14.0846 13.0346 13.0492 12.6393 11.9763 12.6393C10.9033 12.6393 9.86794 13.0346 9.06802 13.7497C8.26809 14.4648 7.75967 15.4496 7.6399 16.5158C7.63745 16.5381 7.63365 16.5601 7.62857 16.5816ZM3.81836 10.9982C3.81836 6.47953 7.48148 2.81641 12.0002 2.81641C16.5189 2.81641 20.182 6.47953 20.182 10.9982C20.182 15.5169 16.5189 19.18 12.0002 19.18C7.48148 19.18 3.81836 15.5169 3.81836 10.9982ZM10.7532 11.179C11.112 11.4188 11.5338 11.5467 11.9654 11.5467C12.544 11.5467 13.099 11.3169 13.5081 10.9077C13.9173 10.4985 14.1472 9.94358 14.1472 9.36493C14.1472 8.9334 14.0192 8.51157 13.7795 8.15277C13.5397 7.79397 13.199 7.51432 12.8003 7.34919C12.4016 7.18405 11.9629 7.14084 11.5397 7.22503C11.1165 7.30922 10.7277 7.51701 10.4226 7.82215C10.1174 8.12728 9.90964 8.51604 9.82546 8.93927C9.74127 9.3625 9.78448 9.8012 9.94962 10.1999C10.1148 10.5985 10.3944 10.9393 10.7532 11.179Z" fill="#02284A"/>
</g>
<defs>
<filter id="filter0_d_2059_804" x="0.909091" y="0.454545" width="22.1818" height="22.1818" filterUnits="userSpaceOnUse" color-interpolation-filters="sRGB">
<feFlood flood-opacity="0" result="BackgroundImageFix"/>
<feColorMatrix in="SourceAlpha" type="matrix" values="0 0 0 0 0 0 0 0 0 0 0 0 0 0 0 0 0 0 127 0" result="hardAlpha"/>
<feOffset dy="0.545455"/>
<feGaussianBlur stdDeviation="0.545455"/>
<feColorMatrix type="matrix" values="0 0 0 0 0 0 0 0 0 0 0 0 0 0 0 0 0 0 0.2 0"/>
<feBlend mode="normal" in2="BackgroundImageFix" result="effect1_dropShadow_2059_804"/>
<feBlend mode="normal" in="SourceGraphic" in2="effect1_dropShadow_2059_804" result="shape"/>
</filter>
</defs>
</svg>
