<svg width="32" height="33" viewBox="0 0 32 33" fill="none" xmlns="http://www.w3.org/2000/svg">
<g filter="url(#filter0_d_3287_839)">
<mask id="mask0_3287_839" style="mask-type:alpha" maskUnits="userSpaceOnUse" x="0" y="0" width="32" height="32">
<rect width="32" height="32" fill="white"/>
</mask>
<g mask="url(#mask0_3287_839)">
<mask id="mask1_3287_839" style="mask-type:alpha" maskUnits="userSpaceOnUse" x="-2" y="0" width="34" height="33">
<rect x="-1.13281" width="33" height="33" fill="#D9D9D9"/>
</mask>
<g mask="url(#mask1_3287_839)">
<path d="M15.3672 19.25C14.6109 19.25 13.9635 18.9807 13.425 18.4422C12.8865 17.9036 12.6172 17.2563 12.6172 16.5C12.6172 15.7437 12.8865 15.0964 13.425 14.5578C13.9635 14.0193 14.6109 13.75 15.3672 13.75C16.1234 13.75 16.7708 14.0193 17.3094 14.5578C17.8479 15.0964 18.1172 15.7437 18.1172 16.5C18.1172 17.2563 17.8479 17.9036 17.3094 18.4422C16.7708 18.9807 16.1234 19.25 15.3672 19.25ZM15.3672 28.875C12.1818 28.875 9.42031 27.8266 7.08281 25.7297C4.74531 23.6328 3.40469 21.0146 3.06094 17.875H5.87969C6.20052 20.2583 7.26042 22.2292 9.05937 23.7875C10.8583 25.3458 12.9609 26.125 15.3672 26.125C18.0484 26.125 20.3229 25.1911 22.1906 23.3234C24.0583 21.4557 24.9922 19.1812 24.9922 16.5C24.9922 13.8188 24.0583 11.5443 22.1906 9.67656C20.3229 7.80885 18.0484 6.875 15.3672 6.875C13.7859 6.875 12.3078 7.24167 10.9328 7.975C9.55781 8.70833 8.40052 9.71667 7.46094 11H11.2422V13.75H2.99219V5.5H5.74219V8.73125C6.91094 7.26458 8.3375 6.13021 10.0219 5.32812C11.7063 4.52604 13.488 4.125 15.3672 4.125C17.0859 4.125 18.6958 4.45156 20.1969 5.10469C21.6979 5.75781 23.0042 6.6401 24.1156 7.75156C25.2271 8.86302 26.1094 10.1693 26.7625 11.6703C27.4156 13.1714 27.7422 14.7812 27.7422 16.5C27.7422 18.2188 27.4156 19.8286 26.7625 21.3297C26.1094 22.8307 25.2271 24.137 24.1156 25.2484C23.0042 26.3599 21.6979 27.2422 20.1969 27.8953C18.6958 28.5484 17.0859 28.875 15.3672 28.875Z" fill="white"/>
</g>
</g>
</g>
<defs>
<filter id="filter0_d_3287_839" x="0.992188" y="4.125" width="28.75" height="28.75" filterUnits="userSpaceOnUse" color-interpolation-filters="sRGB">
<feFlood flood-opacity="0" result="BackgroundImageFix"/>
<feColorMatrix in="SourceAlpha" type="matrix" values="0 0 0 0 0 0 0 0 0 0 0 0 0 0 0 0 0 0 127 0" result="hardAlpha"/>
<feOffset dy="2"/>
<feGaussianBlur stdDeviation="1"/>
<feComposite in2="hardAlpha" operator="out"/>
<feColorMatrix type="matrix" values="0 0 0 0 0 0 0 0 0 0 0 0 0 0 0 0 0 0 0.2 0"/>
<feBlend mode="normal" in2="BackgroundImageFix" result="effect1_dropShadow_3287_839"/>
<feBlend mode="normal" in="SourceGraphic" in2="effect1_dropShadow_3287_839" result="shape"/>
</filter>
</defs>
</svg>
