<svg width="33" height="34" viewBox="0 0 33 34" fill="none" xmlns="http://www.w3.org/2000/svg">
<g filter="url(#filter0_d_3287_751)">
<mask id="mask0_3287_751" style="mask-type:alpha" maskUnits="userSpaceOnUse" x="0" y="0" width="33" height="33">
<rect x="0.882812" y="0.306641" width="32" height="32" fill="white"/>
</mask>
<g mask="url(#mask0_3287_751)">
<path d="M16.8815 17.6403C15.5704 17.6403 14.4648 17.1903 13.5648 16.2903C12.6648 15.3903 12.2148 14.2847 12.2148 12.9736C12.2148 11.6625 12.6648 10.557 13.5648 9.65697C14.4648 8.75697 15.5704 8.30697 16.8815 8.30697C18.1926 8.30697 19.2982 8.75697 20.1982 9.65697C21.0982 10.557 21.5482 11.6625 21.5482 12.9736C21.5482 14.2847 21.0982 15.3903 20.1982 16.2903C19.2982 17.1903 18.1926 17.6403 16.8815 17.6403ZM16.8815 14.9736C17.4593 14.9736 17.9371 14.7847 18.3148 14.407C18.6926 14.0292 18.8815 13.5514 18.8815 12.9736C18.8815 12.3959 18.6926 11.9181 18.3148 11.5403C17.9371 11.1625 17.4593 10.9736 16.8815 10.9736C16.3037 10.9736 15.826 11.1625 15.4482 11.5403C15.0704 11.9181 14.8815 12.3959 14.8815 12.9736C14.8815 13.5514 15.0704 14.0292 15.4482 14.407C15.826 14.7847 16.3037 14.9736 16.8815 14.9736ZM16.8815 29.6403C13.7926 28.8625 11.2426 27.0903 9.23151 24.3236C7.2204 21.557 6.21484 18.4847 6.21484 15.107V6.97363L16.8815 2.97363L27.5482 6.97363V15.107C27.5482 18.4847 26.5426 21.557 24.5315 24.3236C22.5204 27.0903 19.9704 28.8625 16.8815 29.6403ZM16.8815 5.80697L8.88151 8.80697V15.107C8.88151 16.307 9.04818 17.4736 9.38151 18.607C9.71484 19.7403 10.1704 20.807 10.7482 21.807C11.6815 21.3403 12.6593 20.9736 13.6815 20.707C14.7037 20.4403 15.7704 20.307 16.8815 20.307C17.9926 20.307 19.0593 20.4403 20.0815 20.707C21.1037 20.9736 22.0815 21.3403 23.0148 21.807C23.5926 20.807 24.0482 19.7403 24.3815 18.607C24.7148 17.4736 24.8815 16.307 24.8815 15.107V8.80697L16.8815 5.80697ZM16.8815 22.9736C16.0815 22.9736 15.3037 23.0625 14.5482 23.2403C13.7926 23.4181 13.0704 23.6625 12.3815 23.9736C13.026 24.6403 13.726 25.2181 14.4815 25.707C15.2371 26.1959 16.0371 26.5736 16.8815 26.8403C17.726 26.5736 18.526 26.1959 19.2815 25.707C20.0371 25.2181 20.7371 24.6403 21.3815 23.9736C20.6926 23.6625 19.9704 23.4181 19.2148 23.2403C18.4593 23.0625 17.6815 22.9736 16.8815 22.9736Z" fill="white"/>
</g>
</g>
<defs>
<filter id="filter0_d_3287_751" x="4.21484" y="2.97363" width="25.332" height="30.667" filterUnits="userSpaceOnUse" color-interpolation-filters="sRGB">
<feFlood flood-opacity="0" result="BackgroundImageFix"/>
<feColorMatrix in="SourceAlpha" type="matrix" values="0 0 0 0 0 0 0 0 0 0 0 0 0 0 0 0 0 0 127 0" result="hardAlpha"/>
<feOffset dy="2"/>
<feGaussianBlur stdDeviation="1"/>
<feComposite in2="hardAlpha" operator="out"/>
<feColorMatrix type="matrix" values="0 0 0 0 0 0 0 0 0 0 0 0 0 0 0 0 0 0 0.2 0"/>
<feBlend mode="normal" in2="BackgroundImageFix" result="effect1_dropShadow_3287_751"/>
<feBlend mode="normal" in="SourceGraphic" in2="effect1_dropShadow_3287_751" result="shape"/>
</filter>
</defs>
</svg>
