<svg width="35" height="29" viewBox="0 0 35 29" fill="none" xmlns="http://www.w3.org/2000/svg">
<path d="M33.25 11.9412H31.5V10.2353C31.5 9.78287 31.3156 9.34897 30.9874 9.02905C30.6593 8.70914 30.2141 8.52941 29.75 8.52941C29.2859 8.52941 28.8407 8.70914 28.5126 9.02905C28.1844 9.34897 28 9.78287 28 10.2353V11.9412H26.25C25.7859 11.9412 25.3407 12.1209 25.0126 12.4408C24.6844 12.7607 24.5 13.1946 24.5 13.6471C24.5 14.0995 24.6844 14.5334 25.0126 14.8533C25.3407 15.1732 25.7859 15.3529 26.25 15.3529H28V17.0588C28 17.5113 28.1844 17.9451 28.5126 18.2651C28.8407 18.585 29.2859 18.7647 29.75 18.7647C30.2141 18.7647 30.6593 18.585 30.9874 18.2651C31.3156 17.9451 31.5 17.5113 31.5 17.0588V15.3529H33.25C33.7141 15.3529 34.1592 15.1732 34.4874 14.8533C34.8156 14.5334 35 14.0995 35 13.6471C35 13.1946 34.8156 12.7607 34.4874 12.4408C34.1592 12.1209 33.7141 11.9412 33.25 11.9412ZM19.775 14.8753C20.7088 14.0874 21.4577 13.1129 21.971 12.018C22.4843 10.923 22.75 9.73327 22.75 8.52941C22.75 6.26727 21.8281 4.09778 20.1872 2.49821C18.5462 0.898632 16.3206 0 14 0C11.6794 0 9.45376 0.898632 7.81282 2.49821C6.17187 4.09778 5.25 6.26727 5.25 8.52941C5.24999 9.73327 5.51565 10.923 6.02897 12.018C6.54229 13.1129 7.29124 14.0874 8.225 14.8753C5.77524 15.9566 3.69681 17.7028 2.23822 19.9052C0.779617 22.1075 0.00257575 24.6727 0 27.2941C0 27.7465 0.184374 28.1804 0.512563 28.5004C0.840752 28.8203 1.28587 29 1.75 29C2.21413 29 2.65925 28.8203 2.98744 28.5004C3.31563 28.1804 3.5 27.7465 3.5 27.2941C3.5 24.5795 4.60625 21.9762 6.57538 20.0567C8.54451 18.1372 11.2152 17.0588 14 17.0588C16.7848 17.0588 19.4555 18.1372 21.4246 20.0567C23.3938 21.9762 24.5 24.5795 24.5 27.2941C24.5 27.7465 24.6844 28.1804 25.0126 28.5004C25.3407 28.8203 25.7859 29 26.25 29C26.7141 29 27.1593 28.8203 27.4874 28.5004C27.8156 28.1804 28 27.7465 28 27.2941C27.9974 24.6727 27.2204 22.1075 25.7618 19.9052C24.3032 17.7028 22.2248 15.9566 19.775 14.8753ZM14 13.6471C12.9616 13.6471 11.9466 13.3469 11.0833 12.7846C10.2199 12.2222 9.54699 11.423 9.14963 10.4879C8.75227 9.55272 8.6483 8.52374 8.85088 7.53101C9.05345 6.53828 9.55346 5.6264 10.2877 4.91069C11.0219 4.19497 11.9574 3.70756 12.9758 3.5101C13.9942 3.31263 15.0498 3.41398 16.0091 3.80132C16.9684 4.18867 17.7883 4.84461 18.3652 5.6862C18.9421 6.52779 19.25 7.51724 19.25 8.52941C19.25 9.8867 18.6969 11.1884 17.7123 12.1481C16.7277 13.1079 15.3924 13.6471 14 13.6471Z" fill="white"/>
</svg>
