<svg width="1440" height="555" viewBox="0 0 1440 555" fill="none" xmlns="http://www.w3.org/2000/svg">
<path opacity="0.73" d="M1521.94 12.2738C1587.6 49.2042 1577 108.718 1515.97 147.449C1454.85 186.179 1354.81 206.363 1255.47 213.182C1156.14 220.055 1054.84 217.6 954.882 213.127C560.215 195.453 435.845 312.954 339.005 352.557C231.652 396.416 69.33 368.868 -52.0994 398.652C-112.859 413.544 -159.809 448.129 -137.715 479.386L-146 612.652L1843.91 642L1884 0L1521.94 12.2738Z" fill="url(#paint0_linear_336_107)"/>
<path opacity="0.73" d="M-79.774 490.099C-18.291 504.987 57.8053 496.807 115.902 479.029C173.999 461.25 218.641 435.019 265.867 410.86C313.093 386.647 366.468 363.306 432.406 353.98C569.183 334.62 711.931 380.484 853.787 373.885C955.902 369.086 1043.94 337.838 1121.55 305.226C1199.16 272.614 1275.08 236.73 1371.05 219.115C1486.26 197.956 1614.75 206.081 1735.49 217.806C1856.23 229.586 1978.93 244.801 2101 236.948V629H-127L-79.774 490.099Z" fill="url(#paint1_linear_336_107)"/>
<path d="M1839.27 133C1816.64 218.174 1663.68 290.963 1488 300.129C1396.15 304.931 1304.48 294.073 1212.99 287.743C1121.59 281.468 1023.15 280.323 942.703 302.367C877.848 320.154 833.037 350.71 784.129 378.047C735.22 405.329 674.374 431.519 600.253 434.848C525.599 438.231 442.035 418.533 380.031 438.995C334.597 454 323.105 484.556 284.174 503.38C246.757 521.495 190.365 526.024 137.804 528.752C85.243 531.481 29.3856 533.827 -12.9306 549.268C-55.1577 564.71 -73.5096 598.54 -34.6678 616H2057L1839.27 133Z" fill="url(#paint2_linear_336_107)"/>
<path d="M116 595.531C202.675 600.149 279.54 569.884 340.266 539.563C400.992 509.243 464.303 475.011 550.265 467.947C631.054 461.318 712.021 480.716 793.97 479.358C873.778 477.999 946.542 457.08 1008.52 432.737C1070.49 408.394 1126.04 380.029 1193.37 359.218C1260.69 338.462 1344.6 325.801 1420.76 337.429C1473.99 345.525 1519.2 364.761 1574.4 368.673C1617.65 371.716 1661.07 364.869 1701.73 357.045C1742.31 349.22 1782.97 340.2 1826.57 338.625C1870.18 337.049 1918.42 344.71 1940 363.076V586.348L116 595.531Z" fill="url(#paint3_linear_336_107)"/>
<defs>
<linearGradient id="paint0_linear_336_107" x1="440.815" y1="31.5409" x2="925.188" y2="949.193" gradientUnits="userSpaceOnUse">
<stop stop-color="#13E6C0"/>
<stop offset="0.509176" stop-color="#5D98F0"/>
<stop offset="1" stop-color="#E020F1"/>
</linearGradient>
<linearGradient id="paint1_linear_336_107" x1="517.051" y1="226.782" x2="739.667" y2="929.318" gradientUnits="userSpaceOnUse">
<stop stop-color="#13E6C0"/>
<stop offset="0.509176" stop-color="#5D98F0"/>
<stop offset="1" stop-color="#E020F1"/>
</linearGradient>
<linearGradient id="paint2_linear_336_107" x1="554.808" y1="156.729" x2="848.793" y2="927.304" gradientUnits="userSpaceOnUse">
<stop stop-color="#13E6C0"/>
<stop offset="0.509176" stop-color="#5D98F0"/>
<stop offset="1" stop-color="#E020F1"/>
</linearGradient>
<linearGradient id="paint3_linear_336_107" x1="882.588" y1="325.861" x2="1080.61" y2="888.721" gradientUnits="userSpaceOnUse">
<stop offset="0.2176" stop-color="#063E67"/>
<stop offset="0.3509" stop-color="#053A61"/>
<stop offset="0.988" stop-color="#02284A"/>
</linearGradient>
</defs>
</svg>
