<svg width="17" height="17" viewBox="0 0 17 17" fill="none" xmlns="http://www.w3.org/2000/svg">
<g id="Instagram" clip-path="url(#clip0_4465_751)">
<g id="Vector">
<path d="M8.97645 2.42799C11.1106 2.42799 11.3612 2.4375 12.2047 2.47556C12.9848 2.51044 13.4066 2.64046 13.6888 2.75145C14.063 2.89732 14.3294 3.06857 14.6084 3.34763C14.8875 3.62669 15.0619 3.89307 15.2046 4.26727C15.3124 4.5495 15.4456 4.97126 15.4805 5.75137C15.5186 6.5949 15.5281 6.84542 15.5281 8.97962C15.5281 11.1138 15.5186 11.3643 15.4805 12.2079C15.4456 12.988 15.3156 13.4097 15.2046 13.692C15.0588 14.0662 14.8875 14.3325 14.6084 14.6116C14.3294 14.8907 14.063 15.0651 13.6888 15.2078C13.4066 15.3156 12.9848 15.4488 12.2047 15.4837C11.3612 15.5217 11.1106 15.5312 8.97645 15.5312C6.84226 15.5312 6.59173 15.5217 5.7482 15.4837C4.9681 15.4488 4.54633 15.3188 4.2641 15.2078C3.8899 15.0619 3.62352 14.8907 3.34446 14.6116C3.0654 14.3325 2.89098 14.0662 2.74828 13.692C2.64046 13.4097 2.50727 12.988 2.47239 12.2079C2.43433 11.3643 2.42482 11.1138 2.42482 8.97962C2.42482 6.84542 2.43433 6.5949 2.47239 5.75137C2.50727 4.97126 2.63729 4.5495 2.74828 4.26727C2.89415 3.89307 3.0654 3.62669 3.34446 3.34763C3.62352 3.06857 3.8899 2.89415 4.2641 2.75145C4.54633 2.64363 4.9681 2.51044 5.7482 2.47556C6.59173 2.43433 6.84543 2.42799 8.97645 2.42799ZM8.97645 0.988281C6.80737 0.988281 6.53465 0.997795 5.68161 1.03585C4.83174 1.0739 4.25141 1.21026 3.74403 1.40688C3.21761 1.60983 2.77365 1.88572 2.32969 2.32968C1.88572 2.77365 1.613 3.22078 1.40688 3.74402C1.21026 4.25141 1.0739 4.83173 1.03585 5.68478C0.997795 6.53465 0.988281 6.80737 0.988281 8.97645C0.988281 11.1455 0.997795 11.4182 1.03585 12.2713C1.0739 13.1212 1.21026 13.7015 1.40688 14.212C1.60983 14.7385 1.88572 15.1824 2.32969 15.6264C2.77365 16.0703 3.22078 16.3431 3.74403 16.5492C4.25141 16.7458 4.83174 16.8822 5.68478 16.9202C6.53782 16.9583 6.80737 16.9678 8.97962 16.9678C11.1519 16.9678 11.4214 16.9583 12.2745 16.9202C13.1243 16.8822 13.7047 16.7458 14.2152 16.5492C14.7416 16.3462 15.1856 16.0703 15.6296 15.6264C16.0735 15.1824 16.3462 14.7353 16.5524 14.212C16.749 13.7047 16.8853 13.1243 16.9234 12.2713C16.9615 11.4182 16.971 11.1487 16.971 8.97645C16.971 6.8042 16.9615 6.53465 16.9234 5.68161C16.8853 4.83173 16.749 4.25141 16.5524 3.74085C16.3494 3.21444 16.0735 2.77048 15.6296 2.32651C15.1856 1.88255 14.7385 1.60983 14.2152 1.4037C13.7078 1.20709 13.1275 1.07073 12.2745 1.03268C11.4183 0.997795 11.1455 0.988281 8.97645 0.988281Z" fill="#02284A"/>
<path d="M8.97645 2.42799C11.1106 2.42799 11.3612 2.4375 12.2047 2.47556C12.9848 2.51044 13.4066 2.64046 13.6888 2.75145C14.063 2.89732 14.3294 3.06857 14.6084 3.34763C14.8875 3.62669 15.0619 3.89307 15.2046 4.26727C15.3124 4.5495 15.4456 4.97126 15.4805 5.75137C15.5186 6.5949 15.5281 6.84542 15.5281 8.97962C15.5281 11.1138 15.5186 11.3643 15.4805 12.2079C15.4456 12.988 15.3156 13.4097 15.2046 13.692C15.0588 14.0662 14.8875 14.3325 14.6084 14.6116C14.3294 14.8907 14.063 15.0651 13.6888 15.2078C13.4066 15.3156 12.9848 15.4488 12.2047 15.4837C11.3612 15.5217 11.1106 15.5312 8.97645 15.5312C6.84226 15.5312 6.59173 15.5217 5.7482 15.4837C4.9681 15.4488 4.54633 15.3188 4.2641 15.2078C3.8899 15.0619 3.62352 14.8907 3.34446 14.6116C3.0654 14.3325 2.89098 14.0662 2.74828 13.692C2.64046 13.4097 2.50727 12.988 2.47239 12.2079C2.43433 11.3643 2.42482 11.1138 2.42482 8.97962C2.42482 6.84542 2.43433 6.5949 2.47239 5.75137C2.50727 4.97126 2.63729 4.5495 2.74828 4.26727C2.89415 3.89307 3.0654 3.62669 3.34446 3.34763C3.62352 3.06857 3.8899 2.89415 4.2641 2.75145C4.54633 2.64363 4.9681 2.51044 5.7482 2.47556C6.59173 2.43433 6.84543 2.42799 8.97645 2.42799Z" fill="#02284A"/>
</g>
<path id="Vector_2" d="M8.97653 4.87598C6.71232 4.87598 4.87305 6.71208 4.87305 8.97946C4.87305 11.2468 6.70915 13.0829 8.97653 13.0829C11.2439 13.0829 13.08 11.2468 13.08 8.97946C13.08 6.71208 11.2439 4.87598 8.97653 4.87598ZM8.97653 11.6401C7.50511 11.6401 6.31276 10.4477 6.31276 8.97629C6.31276 7.50487 7.50511 6.31251 8.97653 6.31251C10.448 6.31251 11.6403 7.50487 11.6403 8.97629C11.6403 10.4477 10.448 11.6401 8.97653 11.6401Z" fill="#1B80A4"/>
<path id="Vector_3" d="M13.2419 5.6688C13.7708 5.6688 14.1996 5.24003 14.1996 4.71111C14.1996 4.18219 13.7708 3.75342 13.2419 3.75342C12.713 3.75342 12.2842 4.18219 12.2842 4.71111C12.2842 5.24003 12.713 5.6688 13.2419 5.6688Z" fill="#1B80A4"/>
</g>
<defs>
<clipPath id="clip0_4465_751">
<rect width="15.9763" height="15.9763" fill="white" transform="translate(0.988281 0.988281)"/>
</clipPath>
</defs>
</svg>
