<svg width="17" height="17" viewBox="0 0 17 17" fill="none" xmlns="http://www.w3.org/2000/svg">
<g id="Telegram" clip-path="url(#clip0_4465_757)">
<path id="Vector" fill-rule="evenodd" clip-rule="evenodd" d="M2.34432 7.84106C6.47253 6.04247 9.22531 4.85673 10.6027 4.28384C14.5353 2.64812 15.3525 2.36397 15.8851 2.35459C16.0023 2.35253 16.2642 2.38156 16.4339 2.51923C16.5771 2.63548 16.6165 2.79251 16.6354 2.90273C16.6543 3.01294 16.6777 3.26402 16.6591 3.4602C16.446 5.69938 15.5238 11.1333 15.0547 13.6412C14.8562 14.7024 14.4653 15.0582 14.0869 15.093C13.2646 15.1687 12.6401 14.5496 11.8436 14.0274C10.5973 13.2104 9.89318 12.7019 8.68338 11.9046C7.28525 10.9833 8.1916 10.4769 8.98839 9.64932C9.19691 9.43273 12.8202 6.13706 12.8904 5.83809C12.8991 5.8007 12.9073 5.66133 12.8245 5.58773C12.7417 5.51413 12.6195 5.5393 12.5313 5.55932C12.4063 5.58769 10.4152 6.9037 6.55809 9.50736C5.99293 9.89544 5.48103 10.0845 5.02239 10.0746C4.51677 10.0637 3.54416 9.78873 2.82113 9.5537C1.9343 9.26542 1.22946 9.11301 1.29084 8.62343C1.3228 8.36843 1.67397 8.10764 2.34432 7.84106Z" fill="#02284A"/>
</g>
<defs>
<clipPath id="clip0_4465_757">
<rect width="15.9763" height="15.9763" fill="white" transform="translate(0.988281 0.323242)"/>
</clipPath>
</defs>
</svg>
