<svg width="17" height="17" viewBox="0 0 17 17" fill="none" xmlns="http://www.w3.org/2000/svg">
<g id="TikTok" clip-path="url(#clip0_4465_755)">
<path id="Vector" d="M12.4647 0.988281H9.70657V11.8707C9.70657 13.1673 8.64577 14.2324 7.32563 14.2324C6.00549 14.2324 4.94466 13.1673 4.94466 11.8707C4.94466 10.5972 5.98191 9.55528 7.25492 9.50899V6.77682C4.44961 6.8231 2.18652 9.06907 2.18652 11.8707C2.18652 14.6955 4.49676 16.9646 7.34921 16.9646C10.2016 16.9646 12.5119 14.6724 12.5119 11.8707V6.29056C13.5491 7.03151 14.8221 7.47143 16.1658 7.4946V4.7624C14.0913 4.69294 12.4647 3.02584 12.4647 0.988281Z" fill="#02284A"/>
</g>
<defs>
<clipPath id="clip0_4465_755">
<rect width="15.9763" height="15.9763" fill="white" transform="translate(0.988281 0.988281)"/>
</clipPath>
</defs>
</svg>
