<svg width="17" height="17" viewBox="0 0 17 17" fill="none" xmlns="http://www.w3.org/2000/svg">
<g id="Twitter" clip-path="url(#clip0_4465_749)">
<path id="Vector" d="M15.005 5.76839C15.0112 5.90898 15.0112 6.04319 15.0112 6.18378C15.0174 10.4463 11.8857 15.367 6.15869 15.367C4.46956 15.367 2.81125 14.8622 1.38721 13.9163C1.6338 13.9483 1.88038 13.9611 2.12697 13.9611C3.52636 13.9611 4.88876 13.4754 5.99224 12.5743C4.66067 12.5488 3.48937 11.6477 3.0825 10.3312C3.55102 10.4271 4.03187 10.4079 4.48806 10.2737C3.03935 9.97977 1.99751 8.65692 1.99135 7.1168C1.99135 7.10402 1.99135 7.09124 1.99135 7.07846C2.42288 7.32769 2.90989 7.46828 3.40307 7.48106C2.04067 6.53526 1.6153 4.65005 2.44137 3.17383C4.0257 5.19324 6.35596 6.41384 8.85883 6.54804C8.60608 5.42969 8.95131 4.25383 9.75888 3.4614C11.0103 2.24081 12.983 2.30471 14.1666 3.60199C14.8633 3.4614 15.5352 3.193 16.1455 2.81596C15.9113 3.56365 15.4242 4.19632 14.777 4.59892C15.3934 4.52223 15.9976 4.34969 16.5647 4.09407C16.1455 4.7459 15.6154 5.30827 15.005 5.76839Z" fill="#02284A"/>
</g>
<defs>
<clipPath id="clip0_4465_749">
<rect width="15.9763" height="15.9763" fill="white" transform="translate(0.988281 0.988281)"/>
</clipPath>
</defs>
</svg>
