<svg width="17" height="12" viewBox="0 0 17 12" fill="none" xmlns="http://www.w3.org/2000/svg">
<path d="M16.6355 2.13505C16.4513 1.45073 15.9117 0.911166 15.2274 0.726926C13.9772 0.384766 8.97641 0.384766 8.97641 0.384766C8.97641 0.384766 3.97561 0.384766 2.7254 0.713766C2.05424 0.898006 1.50152 1.45073 1.31728 2.13505C0.988281 3.38525 0.988281 5.97777 0.988281 5.97777C0.988281 5.97777 0.988281 8.58346 1.31728 9.8205C1.50152 10.5048 2.04108 11.0444 2.7254 11.2286C3.98877 11.5708 8.97641 11.5708 8.97641 11.5708C8.97641 11.5708 13.9772 11.5708 15.2274 11.2418C15.9117 11.0575 16.4513 10.518 16.6355 9.83366C16.9645 8.58346 16.9645 5.99093 16.9645 5.99093C16.9645 5.99093 16.9777 3.38525 16.6355 2.13505Z" fill="#02284A"/>
<path d="M7.38379 8.37277L11.5424 5.97764L7.38379 3.58252V8.37277Z" fill="#1B80A4"/>
</svg>
